<?xml version="1.0" encoding="UTF-8" standalone="no"?>
<svg
   xmlns:dc="http://purl.org/dc/elements/1.1/"
   xmlns:cc="http://creativecommons.org/ns#"
   xmlns:rdf="http://www.w3.org/1999/02/22-rdf-syntax-ns#"
   xmlns:svg="http://www.w3.org/2000/svg"
   xmlns="http://www.w3.org/2000/svg"
   viewBox="0 0 1361.3333 765.33331"
   height="765.33331"
   width="1361.3333"
   xml:space="preserve"
   id="svg2"
   version="1.1"><metadata
     id="metadata8"><rdf:RDF><cc:Work
         rdf:about=""><dc:format>image/svg+xml</dc:format><dc:type
           rdf:resource="http://purl.org/dc/dcmitype/StillImage" /></cc:Work></rdf:RDF></metadata><defs
     id="defs6"><clipPath
       id="clipPath20"
       clipPathUnits="userSpaceOnUse"><path
         id="path18"
         d="M 0,5740 H 10209 V 0 H 0 Z" /></clipPath></defs><g
     transform="matrix(1.3333333,0,0,-1.3333333,0,765.33333)"
     id="g10"><g
       transform="scale(0.1)"
       id="g12"><g
         id="g14"><g
           clip-path="url(#clipPath20)"
           id="g16"><path
             id="path22"
             style="fill:#000000;fill-opacity:1;fill-rule:evenodd;stroke:none"
             d="m 5122.47,2847.53 -67.42,37.45 14.99,-37.45 -14.99,-37.46 67.42,37.46" /><path
             id="path24"
             style="fill:none;stroke:#000000;stroke-width:7.49100018;stroke-linecap:round;stroke-linejoin:round;stroke-miterlimit:10;stroke-dasharray:none;stroke-opacity:1"
             d="m 5122.47,2847.53 -67.42,37.45 14.99,-37.45 -14.99,-37.46 67.42,37.46" /><path
             id="path26"
             style="fill:#572013;fill-opacity:1;fill-rule:evenodd;stroke:none"
             d="m 5122.47,2847.53 157.78,-434.66 455.64,78.78 -462.16,14.96 -158,-434.57 367.44,-280.73 377.76,266.68 -349.09,-303.24 129.94,-443.78 -173.82,428.49 -460.87,-37.73 454.75,83.8 113.59,448.24 -359.97,290.25 -384.6,-256.7 356.9,294 -118.28,447.02 -456.48,73.77 -206.9,-413.53 164.35,432.21 -324.22,329.7 -433.07,-162.09 -28.06,-461.55 -143.81,439.47 -451.49,99.93 456.56,73.29 118.75,446.9 54.11,-459.23 422.82,-187.19 376.36,268.65 -92.35,453.09 252.66,-387.28 461.96,20.34 -422.04,-188.97 54.12,-459.23 -99.93,451.49 -452,97.55 -272.97,-373.23 229.94,-401.19 -361.48,288.37 -432.21,-164.36 341.36,311.92 -146.11,438.72 297.35,-354.12 456.17,75.68 167.07,431.17 -325.94,328 423.79,-184.98 374.95,270.62 -42.07,460.49 -452,97.56 459.51,-51.7 238.71,396.02 -264.69,379.16 -454.04,-87.6 389.9,248.59 -15.49,462.14 184.54,-423.99 462.39,-3.87 -431.35,-166.62 -76.16,-456.09 353.81,-297.72 415.89,202.12 -312.28,-341.03 134.58,-442.39 450.41,-104.65 234.55,398.51 -193.37,-420.04 301.04,-350.99 443.09,132.27 59.4,458.57 113.59,-448.24 443.64,-130.4 -460.49,-42.07 -148.87,-437.79 -22.75,461.85 -409.11,215.52 -393.76,-242.44 61.32,-458.32 -225.73,403.57 -462.28,11.13 -240.78,-394.77 262.71,-380.53 -384.35,257.1 -416.94,-199.95 -35.31,-461.05 381.63,-261.11 -462.23,-13.08 -261.11,-381.63 -13.07,462.23 -406.83,219.78 458.32,61.32 219.79,406.83 -199.95,416.95 -461.05,35.31 393.76,242.43 35.31,461.06 242.43,-393.76 458.33,61.32 -403.57,-225.73 -11.13,-462.28 394.77,-240.78 405.91,221.49 -198.2,-417.77 221.49,-405.91 -417.78,198.2 -380.53,-262.71 153.44,436.21 -262.71,380.53 -462.27,11.13 -240.78,-394.77 -37.24,460.91 -394.78,240.78 -426.83,-177.85 -11.14,-462.28 -159.82,433.91 -454.84,83.32 -299.57,-352.25 155.27,-435.55 -381.63,261.1 -435.57,-155.26 261.12,381.63 -199.95,416.94 406.83,-219.79 416.95,199.95 83.31,454.84 -352.24,299.57 461.05,-35.31 299.58,352.24 -35.32,-461.06 429.4,-171.57 -444.45,127.61 -301.41,-350.67 197.76,-417.99 462.28,10.66 -425.9,-180.09 -61.79,-458.25 -111.24,448.82 -455.27,80.93 453.09,92.35 151.15,437.01 -299.2,352.55 -443.78,-129.93 364.78,284.18 -58.91,458.63 -426.65,178.3 -336.42,-317.24 196.01,418.81 -260.71,381.9 -461.097,-34.83 -200.383,-416.74 -82.84,454.93 -416.734,200.38 454.93,82.84 155.722,435.4 129.938,-443.78 435.394,-155.72 381.91,260.71 -34.84,461.09 299.21,-352.55 461.09,34.83 -352.56,-299.21 129.94,-443.77 -284.18,364.78 -458.64,-58.92 -178.29,-426.65 280.34,-367.74 -442.95,132.73 -367.737,-280.34 132.723,442.95 -317.246,336.41 454.4,-85.69 336.41,317.24 -58.91,458.64 -426.654,178.3 449.964,106.53 178.3,426.66 -240.37,395.02 -458.632,-58.92 404.742,223.62 13.55,462.21 -393.499,242.84 -407.063,-219.36 200.383,416.73 -219.367,407.06 416.734,-200.38 381.902,260.71 -155.72,-435.39 260.71,-381.91 462.21,-13.55 242.84,393.5 34.84,-461.09 393.5,-242.84 427.77,175.61 -39.67,460.7 85.7,-454.4 448.71,-111.71 284.56,364.49 -217.23,408.2 352.25,-299.57 437.16,150.69 -350.99,-301.04 132.26,-443.09 -286.08,363.29 -458.33,-61.32 -180.52,-425.71 315.48,-338.07 -417.78,198.19 -383.27,-258.71 32.42,-461.27 434.58,-158 -462.22,-13.07 -224.04,-404.51 238.29,-396.27 462.34,8.23 -369.2,-278.41 8.23,-462.34 -278.41,369.2 -458.94,-56.52 338.07,315.48 -56.52,458.94 -404.5,224.04 -396.28,-238.29 180.53,425.71 -238.3,396.28 425.71,-180.53 338.07,315.48 -198.19,-417.78 258.71,-383.26 461.27,32.41 202.56,415.68 80.46,-455.35 415.68,-202.56 -455.36,-80.46 -158,-434.57 -127.61,444.45 -434.58,158 L 1863.39,5298 1895.8,4836.73 1598.45,5190.85 1137.18,5158.43 892.281,4766.2 1150.99,4382.94 769.359,4644.05 350.344,4448.48 310.203,3987.82 689.078,3722.73 226.742,3714.5 -38.3516,3335.62 -46.582,3797.96 -451.09,4022 7.85156,4078.51 231.891,4483.02 36.3203,4902.03 -424.34,4942.17 -28.0625,5180.47 12.0781,5641.13 5122.47,2847.53" /><path
             id="path28"
             style="fill:none;stroke:#500000;stroke-width:7.49100018;stroke-linecap:round;stroke-linejoin:round;stroke-miterlimit:10;stroke-dasharray:none;stroke-opacity:1"
             d="m 5122.47,2847.53 157.78,-434.66 455.64,78.78 -462.16,14.96 -158,-434.57 367.44,-280.73 377.76,266.68 -349.09,-303.24 129.94,-443.78 -173.82,428.49 -460.87,-37.73 454.75,83.8 113.59,448.24 -359.97,290.25 -384.6,-256.7 356.9,294 -118.28,447.02 -456.48,73.77 -206.9,-413.53 164.35,432.21 -324.22,329.7 -433.07,-162.09 -28.06,-461.55 -143.81,439.47 -451.49,99.93 456.56,73.29 118.75,446.9 54.11,-459.23 422.82,-187.19 376.36,268.65 -92.35,453.09 252.66,-387.28 461.96,20.34 -422.04,-188.97 54.12,-459.23 -99.93,451.49 -452,97.55 -272.97,-373.23 229.94,-401.19 -361.48,288.37 -432.21,-164.36 341.36,311.92 -146.11,438.72" /><path
             id="path30"
             style="fill:none;stroke:#500000;stroke-width:7.49100018;stroke-linecap:round;stroke-linejoin:round;stroke-miterlimit:10;stroke-dasharray:none;stroke-opacity:1"
             d="m 3679.35,3575.89 297.35,-354.12 456.17,75.68 167.07,431.17 -325.94,328 423.79,-184.98 374.95,270.62 -42.07,460.49 -452,97.56 459.51,-51.7 238.71,396.02 -264.69,379.16 -454.04,-87.6 389.9,248.59 -15.49,462.14 184.54,-423.99 462.39,-3.87 -431.35,-166.62 -76.16,-456.09 353.81,-297.72 415.89,202.12 -312.28,-341.03 134.58,-442.39 450.41,-104.65 234.55,398.51 -193.37,-420.04 301.04,-350.99 443.09,132.27 59.4,458.57 113.59,-448.24 443.64,-130.4 -460.49,-42.07 -148.87,-437.79 -22.75,461.85 -409.11,215.52 -393.76,-242.44 61.32,-458.32 -225.73,403.57 -462.28,11.13 -240.78,-394.77 262.71,-380.53 -384.35,257.1 -416.94,-199.95" /><path
             id="path32"
             style="fill:none;stroke:#500000;stroke-width:7.49100018;stroke-linecap:round;stroke-linejoin:round;stroke-miterlimit:10;stroke-dasharray:none;stroke-opacity:1"
             d="m 4675.31,2845.66 -35.31,-461.05 381.63,-261.11 -462.23,-13.08 -261.11,-381.63 -13.07,462.23 -406.83,219.78 458.32,61.32 219.79,406.83 -199.95,416.95 -461.05,35.31 393.76,242.43 35.31,461.06 242.43,-393.76 458.33,61.32 -403.57,-225.73 -11.13,-462.28 394.77,-240.78 405.91,221.49 -198.2,-417.77 221.49,-405.91 -417.78,198.2 -380.53,-262.71 153.44,436.21 -262.71,380.53 -462.27,11.13 -240.78,-394.77 -37.24,460.91 -394.78,240.78 -426.83,-177.85 -11.14,-462.28 -159.82,433.91 -454.84,83.32 -299.57,-352.25 155.27,-435.55 -381.63,261.1 -435.57,-155.26 261.12,381.63 -199.95,416.94 406.83,-219.79 416.95,199.95 83.31,454.84 -352.24,299.57" /><path
             id="path34"
             style="fill:none;stroke:#500000;stroke-width:7.49100018;stroke-linecap:round;stroke-linejoin:round;stroke-miterlimit:10;stroke-dasharray:none;stroke-opacity:1"
             d="m 1993.84,3969.84 461.05,-35.31 299.58,352.24 -35.32,-461.06 429.4,-171.57 -444.45,127.61 -301.41,-350.67 197.76,-417.99 462.28,10.66 -425.9,-180.09 -61.79,-458.25 -111.24,448.82 -455.27,80.93 453.09,92.35 151.15,437.01 -299.2,352.55 -443.78,-129.93 364.78,284.18 -58.91,458.63 -426.65,178.3 -336.42,-317.24 196.01,418.81 -260.71,381.9 -461.097,-34.83 -200.383,-416.74 -82.84,454.93 -416.734,200.38 454.93,82.84 155.722,435.4 129.938,-443.78 435.394,-155.72 381.91,260.71 -34.84,461.09 299.21,-352.55 461.09,34.83 -352.56,-299.21 129.94,-443.77 -284.18,364.78 -458.64,-58.92 -178.29,-426.65 280.34,-367.74 -442.95,132.73 -367.737,-280.34" /><path
             id="path36"
             style="fill:none;stroke:#500000;stroke-width:7.49100018;stroke-linecap:round;stroke-linejoin:round;stroke-miterlimit:10;stroke-dasharray:none;stroke-opacity:1"
             d="m 796.113,4219.16 132.723,442.95 -317.246,336.41 454.4,-85.69 336.41,317.24 -58.91,458.64 -426.654,178.3 449.964,106.53 178.3,426.66 -240.37,395.02 -458.632,-58.92 404.742,223.62 13.55,462.21 -393.499,242.84 -407.063,-219.36 200.383,416.73 -219.367,407.06 416.734,-200.38 381.902,260.71 -155.72,-435.39 260.71,-381.91 462.21,-13.55 242.84,393.5 34.84,-461.09 393.5,-242.84 427.77,175.61 -39.67,460.7 85.7,-454.4 448.71,-111.71 284.56,364.49 -217.23,408.2 352.25,-299.57 437.16,150.69 -350.99,-301.04 132.26,-443.09 -286.08,363.29 -458.33,-61.32 -180.52,-425.71 315.48,-338.07 -417.78,198.19 -383.27,-258.71 32.42,-461.27 434.58,-158" /><path
             id="path38"
             style="fill:none;stroke:#500000;stroke-width:7.49100018;stroke-linecap:round;stroke-linejoin:round;stroke-miterlimit:10;stroke-dasharray:none;stroke-opacity:1"
             d="m 3098.88,5996.73 -462.22,-13.07 -224.04,-404.51 238.29,-396.27 462.34,8.23 -369.2,-278.41 8.23,-462.34 -278.41,369.2 -458.94,-56.52 338.07,315.48 -56.52,458.94 -404.5,224.04 -396.28,-238.29 180.53,425.71 -238.3,396.28 425.71,-180.53 338.07,315.48 -198.19,-417.78 258.71,-383.26 461.27,32.41 202.56,415.68 80.46,-455.35 415.68,-202.56 -455.36,-80.46 -158,-434.57 -127.61,444.45 -434.58,158 L 1863.39,5298 1895.8,4836.73 1598.45,5190.85 1137.18,5158.43 892.281,4766.2 1150.99,4382.94 769.359,4644.05 350.344,4448.48 310.203,3987.82 689.078,3722.73 226.742,3714.5 -38.3516,3335.62 -46.582,3797.96 -451.09,4022 7.85156,4078.51 231.891,4483.02" /><path
             id="path40"
             style="fill:none;stroke:#500000;stroke-width:7.49100018;stroke-linecap:round;stroke-linejoin:round;stroke-miterlimit:10;stroke-dasharray:none;stroke-opacity:1"
             d="m 231.891,4483.02 -195.5707,419.01 -460.6603,40.14 396.2775,238.3 40.1406,460.66" /><path
             id="path42"
             style="fill:#592016;fill-opacity:1;fill-rule:evenodd;stroke:none"
             d="m 12.0781,5641.13 562.7579,131.89 -31.055,577.18 -86.574,-571.49 516.195,-260.08 402.318,415.02 -275.98,507.87 325.31,-477.78 569.93,96.29 -557.47,-152.71 -20.68,-577.64 -37.1,576.82 -539.687,206.95 -413.254,-404.12 262.32,-515.06 -312.433,486.29 -572.301,-81.04 -158.449,-555.86 483.215,-317.18 -512.469,267.35 -456.781,-354.19 138.07,-561.27 568.961,-101.87 -566.567,-114.44 -189.902,-545.92 -24.098,577.5 -537.495,212.6 578.011,-0.1 294.32,497.46 -278.363,506.56 -575.968,-48.56 517.777,256.91 42.441,576.45 172.457,-551.68 578.008,-0.11 -575.129,-57.6 -187.617,-546.72 423.344,-393.54 531.5895,226.96 -410.9255,-406.5 140.711,-560.62 -336.961,469.64 -566.015,-117.11 483.323,316.99 -26.82,577.39 -510.633,270.83 -454.92,-356.57 291.97,498.85 -280.74,505.24 -577.8,15.55 -187.33,-546.82 131.8,562.79 -456.46,354.59 -509.46,-273.04 42.53,-576.45 -251.47,520.44 -575.98,48.48 553.46,166.67 72.56,573.43 143.34,-559.95 554.95,-161.65 421.63,395.37 -189.99,545.89 377.37,-437.82 568.95,101.95 195.9,543.8 -460.52,349.32 493.09,-301.59 479.819,322.29 -99.562,569.37 -560.717,140.33 573.041,75.64 226.598,531.73 -15.242,-577.8 521.785,-248.67 -576.664,39.42 -327.478,-476.29 243.259,-524.32 577.933,9.27 -534.054,-221.09 -81.555,-572.23 454.973,-356.5 510.597,270.9 -375.246,-439.65 187.4066,-546.78 567.2934,-110.8 379.367,436.09 -50.891,-575.76 435.887,-379.6 -575.735,51.19 -331.957,-473.18 -9.269,577.94 -473.004,332.2 -546.785,-187.41 -110.797,-567.28 -243.533,524.2 -567.23,111.09 524.33,243.26 -9.27,577.93 221.086,-534.05 572.226,-81.56 356.5082,454.97 -216.0472,536.12 489.746,-307 536.227,215.77 -307.25,-489.59 270.629,-510.73 -519.016,254.39 -510.879,-270.36 -81.558,-572.23 454.968,-356.51 -577.617,21.3 -356.742,-454.78 158.234,-555.93 572.27,-81.26 -562.066,-134.82 -170.071,-552.42 393.598,-423.29 563.312,129.51 -379.832,-435.68 129.2192,-563.386 -435.4882,380.056 -546.787,-187.4 332.459,472.83 -187.114,546.89 -552.425,170.07 -423.29,-393.59 111.4,567.17 -393.38,423.49 567.12,-111.69 275.9,507.91 -223.82,-532.92 390.93,-425.76 547.862,184.25 54.215,575.46 161.141,-555.09 559.82,-143.86 -573.504,-72.03 -167.179,-553.3 -47.946,576.02 -520.209,251.95 -481.67,-319.51 96.27,-569.94 -299.05,494.63 -577.99,-5.63 -283.85,-503.51 344.76,-463.93 -491.17,304.69 -512.29,-267.68 -24.03,-577.505 488.29,-309.305 -576.86,-36.473 -309.56,-488.125 -36.17,576.875 -517.81,256.844 569.93,96.269 257.12,517.68 -267.68,512.29 -577.51,24.02 481.51,319.76 24.32,577.5 319.51,-481.67 569.94,96.27 -494.63,-299.06 5.63,-577.98 503.5,-283.86 497.43,294.39 -229.67,-530.425 294.12,-497.579 -530.3,229.95 -464.11,-344.524 173.26,551.43 -344.28,464.288 -577.99,-5.62 -283.85,-503.504 -66.01,574.224 -503.36,284.12 -525.72,-240.22 5.92,-577.976 -217.99,535.326 -571.75,84.86 -359.13,-452.9 212.94,-537.356 -487.96,309.82 -537.47,-212.66 310.08,487.796 -267.68,512.3 517.54,-257.39 512.44,267.4 84.86,571.75 -452.9,359.13 577.48,-24.64 359.37,452.72 -155.02,556.83 -577.72,18.28 576.66,39.49 204.72,540.54 -410.76,406.67 -538.46,-210.13 423.5,393.37 -123,564.77 322.02,-480 569.42,99.25 -493.06,-301.64 8.65,-577.94 501.86,-286.76 465.91,342.08 -307.52,-489.41 264.72,-513.83 577.36,-27.36 259.56,516.45 -51.52,-575.71 469.32,-337.4 526.73,238.01 56.93,575.2 291.77,-498.96 575.17,-57.24 -499.12,-291.51 3.2,-578 -342.08,465.92 -578.01,-2.9 -337.39,-469.31 238.01,-526.73 -502.01,286.49 -526.86,-237.73 286.76,501.86 -342.08,465.91 489.41,-307.52 513.83,264.71 27.37,577.36 -486.5,312.13 577.06,33.14 312.38,486.32 32.84,-577.07 516.31,-259.84 -570.48,-92.97 -260.1,-516.18 264.71,-513.83 577.36,-27.36 -483.35,-316.98 -27.66,-577.34 450.82,-361.743 513.69,264.981 -380.3,-435.278 181.07,-548.9136 565.97,-117.3514 384.39,431.676 -57.55,-575.137 431.48,-384.613 -575.11,57.847 -337.41,-469.308 -2.58,578 -469.14,337.648 -548.91,-181.07 -117.35,-565.969 -237.46,526.981 -565.91,117.644 L 12.0781,5641.13" /><path
             id="path44"
             style="fill:none;stroke:#500000;stroke-width:7.49100018;stroke-linecap:round;stroke-linejoin:round;stroke-miterlimit:10;stroke-dasharray:none;stroke-opacity:1"
             d="m 12.0781,5641.13 562.7579,131.89 -31.055,577.18 -86.574,-571.49 516.195,-260.08 402.318,415.02 -275.98,507.87 325.31,-477.78 569.93,96.29 -557.47,-152.71 -20.68,-577.64 -37.1,576.82 -539.687,206.95 -413.254,-404.12 262.32,-515.06 -312.433,486.29 -572.301,-81.04 -158.449,-555.86 483.215,-317.18 -512.469,267.35 -456.781,-354.19 138.07,-561.27 568.961,-101.87 -566.567,-114.44 -189.902,-545.92 -24.098,577.5 -537.495,212.6 578.011,-0.1 294.32,497.46 -278.363,506.56 -575.968,-48.56 517.777,256.91 42.441,576.45 172.457,-551.68 578.008,-0.11 -575.129,-57.6 -187.617,-546.72 423.344,-393.54 531.5895,226.96 -410.9255,-406.5 140.711,-560.62 -336.961,469.64 -566.015,-117.11" /><path
             id="path46"
             style="fill:none;stroke:#500000;stroke-width:7.49100018;stroke-linecap:round;stroke-linejoin:round;stroke-miterlimit:10;stroke-dasharray:none;stroke-opacity:1"
             d="m -1103.46,3957.68 483.323,316.99 -26.82,577.39 -510.633,270.83 -454.92,-356.57 291.97,498.85 -280.74,505.24 -577.8,15.55 -187.33,-546.82 131.8,562.79 -456.46,354.59 -509.46,-273.04 42.53,-576.45 -251.47,520.44 -575.98,48.48 553.46,166.67 72.56,573.43 143.34,-559.95 554.95,-161.65 421.63,395.37 -189.99,545.89 377.37,-437.82 568.95,101.95 195.9,543.8 -460.52,349.32 493.09,-301.59 479.819,322.29 -99.562,569.37 -560.717,140.33 573.041,75.64 226.598,531.73 -15.242,-577.8 521.785,-248.67 -576.664,39.42 -327.478,-476.29 243.259,-524.32 577.933,9.27 -534.054,-221.09 -81.555,-572.23 454.973,-356.5 510.597,270.9 -375.246,-439.65 187.4066,-546.78" /><path
             id="path48"
             style="fill:none;stroke:#500000;stroke-width:7.49100018;stroke-linecap:round;stroke-linejoin:round;stroke-miterlimit:10;stroke-dasharray:none;stroke-opacity:1"
             d="m -49.8164,5086.99 567.2934,-110.8 379.367,436.09 -50.891,-575.76 435.887,-379.6 -575.735,51.19 -331.957,-473.18 -9.269,577.94 -473.004,332.2 -546.785,-187.41 -110.797,-567.28 -243.533,524.2 -567.23,111.09 524.33,243.26 -9.27,577.93 221.086,-534.05 572.226,-81.56 356.5082,454.97 -216.0472,536.12 489.746,-307 536.227,215.77 -307.25,-489.59 270.629,-510.73 -519.016,254.39 -510.879,-270.36 -81.558,-572.23 454.968,-356.51 -577.617,21.3 -356.742,-454.78 158.234,-555.93 572.27,-81.26 -562.066,-134.82 -170.071,-552.42 393.598,-423.29 563.312,129.51 -379.832,-435.68 129.2192,-563.386 -435.4882,380.056 -546.787,-187.4 332.459,472.83 -187.114,546.89 -552.425,170.07 -423.29,-393.59" /><path
             id="path50"
             style="fill:none;stroke:#500000;stroke-width:7.49100018;stroke-linecap:round;stroke-linejoin:round;stroke-miterlimit:10;stroke-dasharray:none;stroke-opacity:1"
             d="m -1837.11,1924.18 111.4,567.17 -393.38,423.49 567.12,-111.69 275.9,507.91 -223.82,-532.92 390.93,-425.76 547.862,184.25 54.215,575.46 161.141,-555.09 559.82,-143.86 -573.504,-72.03 -167.179,-553.3 -47.946,576.02 -520.209,251.95 -481.67,-319.51 96.27,-569.94 -299.05,494.63 -577.99,-5.63 -283.85,-503.51 344.76,-463.93 -491.17,304.69 -512.29,-267.68 -24.03,-577.505 488.29,-309.305 -576.86,-36.473 -309.56,-488.125 -36.17,576.875 -517.81,256.844 569.93,96.269 257.12,517.68 -267.68,512.29 -577.51,24.02 481.51,319.76 24.32,577.5 319.51,-481.67 569.94,96.27 -494.63,-299.06 5.63,-577.98 503.5,-283.86 497.43,294.39 -229.67,-530.425 294.12,-497.579" /><path
             id="path52"
             style="fill:#612019;fill-opacity:1;fill-rule:evenodd;stroke:none"
             d="m -4202.44,-288.336 -71.83,689.883 -691.8,50.023 667.2,-189.554 387.73,575.129 -433.44,541.505 -646.08,-252.34 617.82,315.26 -28.73,693.02 97.42,-686.73 684.56,-111.69 -692.27,43.14 -328.04,-611.13 418.53,-553.114 652.71,234.657 -626.18,-298.321 9.85,-693.543 637.88,-272.418 450.15,527.692 -395.52,-569.793 352.81,-597.18 688.96,80.13 206.34,662.206 51.21,-691.716 621.45,-308.04 -691.15,58.36 -333.79,-608.01 87.25,688.1 -547.87,425.37 -645.02,-255.04 -28.64,-693.02 -227.8,655.14 -679.86,137.41 682.83,121.8 87.25,688.095 -18.48,-693.365 622.42,-306.09 532.32,444.67 -190.41,666.965 421.99,-550.477 688.63,83.008 -610.06,-330.036 54.1,-691.5 -304.21,623.34 -691.38,55.47 -399.7,-566.87 355.92,-595.33 -549.64,423.08 -643.95,-257.73 -105.95,-685.47 622.73,-305.44 -649.99,242.08 -491.21,-489.71 248.27,-647.66 692.68,-35.91 -657.49,-220.92 -144.53,-678.38 -114.64,684.07 -671.73,172.81 688.27,85.89 276.44,636.14 -406.84,561.77 -678.52,-143.89 578.31,382.96 -35.24,692.71 -617.87,315.19 -485.01,-495.84 433.37,541.56 -311.35,619.808 -692.83,-33.067 -250.91,-646.641 -4.02,693.606 -599.06,349.609 685.58,-105.25 374.39,583.891 -133.87,-680.57 517.66,-461.666 660.87,210.56 75.73,689.465 182.7,-669.115 668.94,-183.35 492.74,488.153 -246.21,648.4411 467.09,-512.7541 679.12,141.031 216.74,658.883 -462.79,516.649 677.93,-146.672 517.14,462.239 -147.39,-677.77 513.76,-465.9888 -689.46,75.7305 -466.52,-513.2737 141.03,-679.118 658.88,-216.74 -660.66,-211.24 -217.43,-658.66 -210.55,660.89 -689.47,75.73 669.12,182.69 183.36,668.94 -488.15,492.75 -670.63,-177.082 439.03,536.989 -176.38,670.808 536.53,-439.59 648.7,245.532 -381.1,-579.5354 244.85,-648.9566 668.93,-183.364 492.76,488.153 -112.44,-684.438 487.63,-493.266 685.69,104.57 182.66,669.126 75.761,-689.466 632.016,-285.75 563.051,405.06 -69.985,690.07 461.692,-517.63 690.145,69.26 -518.11,-461.15 141.02,-679.12 -512.778,467.07 -679.273,-140.31 -285.754,-632.01 405.0506,-563.06 -658.4216,218.13 -563.474,-404.46 218.81,658.19 -563.06,405.04 600.51,-347.11 566.007,400.91 -136.746,680 -676.981,150.95 685.121,108.14 255.668,644.777 -1.086,-693.617 633.5,-282.44 -692.957,30.13 -378.676,-581.12 307.426,-621.76 693.02,28.69 -634.086,-281.13 -80.805,-688.88 556.6291,-413.84 604.1019,340.81 -436.786,-538.81 241.434,-650.23 683.956,-115.32 441.29,535.13 -43.2,-692.27 534.67,-441.84 -692.22,43.92 -383.53,-577.93 -28.685,693.02 -577.519,384.15 -650.239,-241.43 -115.316,-683.96 -308.074,621.44 -683.837,116.03 621.763,307.42 -28.68,693.02 281.117,-634.09 688.887,-80.81 413.844,556.63 -275.793,636.42 596.832,-353.4 636.71,275.13 -354.02,-596.46 340.17,-604.47 -630.192,289.74 -604.825,-339.54 -80.812,-688.89 556.621,-413.85 -693.562,8.37 -414.43,-556.19 206.367,-662.2 688.973,-80.09 -670.262,-178.46 -187.586,-667.76 485.023,-495.83 671.735,172.83 -442.414,-534.19 172.129,-671.92 -533.735,442.98 -650.238,-241.42 384.758,577.11 -240.738,650.49 -667.762,187.59 -495.83,-485.02 116.76,683.71 -484.5,496.34 -686.34,-100.23 -108.88,-685.01 40.31,692.44 -612.47,325.54 -546.06,-427.68 169.31,-672.63 -404.44,563.49 -690.9,-61.28 620.15,310.66 -32.29,692.86 284.42,-632.61 689.29,-77.22 417.35,554 -336.99,606.25 536.04,-440.18 651.75,237.32 119.63,683.21 -575.9,386.58 677.61,-148.14 472.44,507.84 -204.27,662.85 -676.34,153.81 637.86,272.44 154.52,676.18 271.77,-638.15 688.629,-83 -606.246,-336.98 -83.713,-688.54 507.83,-472.44 662.851,204.27 -416.769,-554.44 203.574,-663.06 -553.996,417.35 -606.25,-336.98 440.184,536.03 -237.314,651.75 -683.21,119.64 -444.66,-532.33 47.56,691.98 -531.86,445.22 691.93,-48.3 387.19,575.49 24.29,-693.19 575.08,-387.79 651.751,237.32 119.641,683.21 304.1407,-623.37 683.0863,-120.36 498.881,481.88 -237.99,651.5 460.57,-518.62 680.85,132.43 225.05,656.09 -456.21,522.46 676.02,-155.24 522.94,455.66 -155.94,-675.85 507.82,-472.45 -688.45,84.45 -472.98,-507.33 132.43,-680.85 656.08,-225.05 -663.28,-202.88 -225.74,-655.84 -6417.8,5907.844" /><path
             id="path54"
             style="fill:none;stroke:#500000;stroke-width:7.49100018;stroke-linecap:round;stroke-linejoin:round;stroke-miterlimit:10;stroke-dasharray:none;stroke-opacity:1"
             d="m -3553.34,-443.809 216.74,658.883 -462.79,516.649 677.93,-146.672 517.14,462.239 -147.39,-677.77 513.76,-465.9888 -689.46,75.7305 -466.52,-513.2737 141.03,-679.118 658.88,-216.74 -660.66,-211.24 -217.43,-658.66 -210.55,660.89 -689.47,75.73 669.12,182.69 183.36,668.94 -488.15,492.75 -670.63,-177.082 439.03,536.989 -176.38,670.808 536.53,-439.59 648.7,245.532 -381.1,-579.5354 244.85,-648.9566 668.93,-183.364 492.76,488.153 -112.44,-684.438 487.63,-493.266 685.69,104.57 182.66,669.126 75.761,-689.466 632.016,-285.75 563.051,405.06 -69.985,690.07 461.692,-517.63 690.145,69.26 -518.11,-461.15 141.02,-679.12 -512.778,467.07 -679.273,-140.31 -285.754,-632.01 405.0506,-563.06" /><path
             id="path56"
             style="fill:#632022;fill-opacity:1;fill-rule:evenodd;stroke:none"
             d="m 2215.36,-6196.18 -808.89,22.8 -163.61,-792.5 321.62,742.55 -605.644,536.68 -692.574,-418.53 193.504,-785.74 -270.188,762.78 -805.937,72.71 809.179,7.27 233.825,774.69 -156.141,-794 656.441,-473.19 703.925,399.14 -171.62,790.81 248.91,-769.98 803.61,-95.05 412.6,696.13 -541.83,601.03 598.56,-544.56 744.64,316.76 12.22,809.12 -734.73,339.11 807.9,-46.1 450.94,671.93 -173.16,-790.47 652.45,-478.67 -782.52,206.1 -575.75,-568.63 196.37,-785.03 797.25,-138.65 -792.56,-163.32 -262.87,-765.33 -36.06,808.41 -782.52,206.11 799.06,-127.79 449.53,672.86 -432.93,683.67 -800.46,-118.68 701.2,403.92 9.27,809.16 288.06,-756.21 808.07,-43.15 -767.61,-256.14 -170.27,-791.1 594.26,-549.26 742.97,320.64 -573.66,-570.73 199.23,-784.3 776.5,-227.76 448.48,673.56 -379.74,-714.57 490.97,-643.26 787.04,188.12 147.01,795.75 155,-794.23 762.53,-270.88 -808.75,-27.57 -302.57,-750.52 6.32,809.19 -693.29,417.35 -712.14,-384.29 62.68,-806.78 -354.13,727.61 -806.56,65.56 -459.01,-666.42 499.67,-636.52 -560.11,584.03 -764.47,-265.35 -67.26,-806.41 709.95,-388.3 -802.89,100.94 -495.61,-639.64 226.54,776.82 -618.36,521.96 766.68,-258.88 613.11,528.13 -142.49,796.57 -785.96,192.59 801.83,109.01 314.35,745.66 -489.61,644.3 -787.44,-186.46 664.23,462.19 -59.71,807.01 -729.29,350.65 -667.6,-457.32 272.49,761.96 -456.259,668.32 761.519,-273.7 616.97,523.62 -192.59,-785.96 522.64,-617.79 807.01,59.71 350.66,729.29 143.73,-796.34 728.74,-351.81 -796.57,-142.48 -192.61,-785.95 -108.99,801.84 -745.66,314.35 -644.3,-489.6 103.11,-802.61 -554.25,589.59 -802.784,-101.85 590.464,553.33 -185.2,787.74 612.02,-529.39 788.02,183.96 314.36,745.66 -489.59,644.3 774.43,-234.69 645.07,488.57 -16.1,809.05 -746.15,313.2 809.02,-17.8 427.14,687.3 -382.77,712.96 -808.86,23.72 669.04,455.199 25,808.828 454.14,-669.762 807.01,59.688 -618.62,-521.664 58.41,-807.099 687.3,-427.15 712.96,382.76 -352.96,-728.17 381.64,-713.57 -727.62,354.11 -554.57,-589.31 493.63,641.22 -376.77,716.15 -807.4,-54.19 -277.7,-760.07 -20.33,808.96 -706.65,394.3 802.01,-107.74 423.55,689.52 -141.23,-796.79 613.95,-527.17 766.27,260.1 72.79,805.94 227.78,-776.5 784.31,-199.2 563.76,580.51 -302.2,750.67 556.4,-587.58 788.98,179.81 237.56,773.559 -552.08,591.641 794.16,-155.395 592.5,551.145 -156.64,-793.91 610.06,-531.65 -805.93,72.798 -532.62,-609.218 179.81,-788.99 773.56,-237.55 -765.87,-261.3 -238.78,-773.18 -260.09,766.28 -805.92,72.8 776.49,227.77 199.22,784.31 -580.51,563.77 -778.14,-222.07 500,636.257 -220.85,778.4921 635.48,-501.0041 751.14,301.012 -431.83,-684.356 299.82,-751.621 784.31,-199.22 563.77,580.5 -116.15,-800.83 579.62,-564.69 797.5,137 198,784.62 103.5,-802.57 743.5,-319.47 647.6,485.16 -97.6,803.3 550.2,-593.38 803.5,96.33 -594.3,-549.26 179.8,-788.99 -608.3,533.58 -789.3,-178.54 -319.5,-743.49 485.2,-647.64 -772.8,240 -648.4,-484.13 10.5,-809.14 775.6,-230.69 -794.6,152.93 -470.5,-658.36 411.1,-696.98 803.8,93.38 -713.6,-381.6 -34.7,-808.46 -264.1,764.91 -806.31,68.61 775.31,231.81 195.1,785.33 -576.6,567.73 -752.73,-297.05 591.33,552.35 -174.35,790.2 -771.91,242.86 -534.87,-607.25 274.96,761.07 -515.11,624.09 -797.82,-135.31 -280.54,-759.03 -217.96,779.3 -758.58,281.74 779.64,216.73 200.89,783.88 297.05,-752.72 783.56,-202.13 624.09,515.11 -135.3,797.82 577.52,-566.83 798.03,134.05 -567.73,-576.63 297.03,-752.72 -552.34,591.38 -790.2,-174.38 -242.87,-771.91 548,-595.42 -793.07,160.84 -596.28,-547.06 162.1,792.82 -606.39,535.83 805.41,-78.34 536.79,605.55 -174.39,790.2 -771.9,242.87 767.64,256.02 244.09,771.53 -480.71,650.954 -789.93,-175.617 670.52,453.024 -48.61,807.754 -724.41,360.636 -673.82,-448.097 282.94,758.136 -447.04,674.52 757.69,-284.13 624.1,515.09 -203.37,-783.23 514.11,-624.918 807.75,48.61 360.64,724.408 132.78,-798.248 723.87,-361.781 -7809.54,-6513.321" /><path
             id="path58"
             style="fill:none;stroke:#500000;stroke-width:7.49100018;stroke-linecap:round;stroke-linejoin:round;stroke-miterlimit:10;stroke-dasharray:none;stroke-opacity:1"
             d="m 2492.21,-5470.4 -729.29,350.65 -667.6,-457.32 272.49,761.96 -456.259,668.32 761.519,-273.7 616.97,523.62 -192.59,-785.96 522.64,-617.79 807.01,59.71 350.66,729.29 143.73,-796.34 728.74,-351.81 -796.57,-142.48 -192.61,-785.95 -108.99,801.84 -745.66,314.35 -644.3,-489.6 103.11,-802.61 -554.25,589.59 -802.784,-101.85 590.464,553.33 -185.2,787.74 612.02,-529.39 788.02,183.96 314.36,745.66 -489.59,644.3 774.43,-234.69 645.07,488.57 -16.1,809.05 -746.15,313.2 809.02,-17.8 427.14,687.3 -382.77,712.96 -808.86,23.72 669.04,455.199 25,808.828 454.14,-669.762 807.01,59.688 -618.62,-521.664 58.41,-807.099 687.3,-427.15 712.96,382.76" /><path
             id="path60"
             style="fill:none;stroke:#500000;stroke-width:7.49100018;stroke-linecap:round;stroke-linejoin:round;stroke-miterlimit:10;stroke-dasharray:none;stroke-opacity:1"
             d="m 6035.27,-1827.77 -352.96,-728.17 381.64,-713.57 -727.62,354.11 -554.57,-589.31 493.63,641.22 -376.77,716.15 -807.4,-54.19 -277.7,-760.07 -20.33,808.96 -706.65,394.3 802.01,-107.74 423.55,689.52 -141.23,-796.79 613.95,-527.17 766.27,260.1 72.79,805.94 227.78,-776.5 784.31,-199.2 563.76,580.51 -302.2,750.67 556.4,-587.58 788.98,179.81 237.56,773.559 -552.08,591.641 794.16,-155.395 592.5,551.145 -156.64,-793.91 610.06,-531.65 -805.93,72.798 -532.62,-609.218 179.81,-788.99 773.56,-237.55 -765.87,-261.3 -238.78,-773.18 -260.09,766.28 -805.92,72.8 776.49,227.77 199.22,784.31 -580.51,563.77 -778.14,-222.07 500,636.257 -220.85,778.4921" /><path
             id="path62"
             style="fill:none;stroke:#500000;stroke-width:7.49100018;stroke-linecap:round;stroke-linejoin:round;stroke-miterlimit:10;stroke-dasharray:none;stroke-opacity:1"
             d="m 8622.07,-4928.32 274.96,761.07 -515.11,624.09 -797.82,-135.31 -280.54,-759.03 -217.96,779.3 -758.58,281.74 779.64,216.73 200.89,783.88 297.05,-752.72 783.56,-202.13 624.09,515.11 -135.3,797.82 577.52,-566.83 798.03,134.05 -567.73,-576.63 297.03,-752.72 -552.34,591.38 -790.2,-174.38 -242.87,-771.91 548,-595.42 -793.07,160.84 -596.28,-547.06 162.1,792.82 -606.39,535.83 805.41,-78.34 536.79,605.55 -174.39,790.2 -771.9,242.87 767.64,256.02 244.09,771.53 -480.71,650.954 -789.93,-175.617 670.52,453.024 -48.61,807.754 -724.41,360.636 -673.82,-448.097 282.94,758.136 -447.04,674.52 757.69,-284.13 624.1,515.09 -203.37,-783.23 514.11,-624.918" /><path
             id="path64"
             style="fill:none;stroke:#500000;stroke-width:7.49100018;stroke-linecap:round;stroke-linejoin:round;stroke-miterlimit:10;stroke-dasharray:none;stroke-opacity:1"
             d="m 7999.86,704.152 807.75,48.61 360.64,724.408 132.78,-798.248 723.87,-361.781" /><path
             id="path66"
             style="fill:#652025;fill-opacity:1;fill-rule:evenodd;stroke:none"
             d="m 10024.9,317.141 -150.79,-912.442 872.29,-307.215 -791.17,478.883 -701.26,-602.927 367.41,-848.7 919.52,98.72 -905.37,-188.61 -206.34,-901.5 116.75,917.42 -841.33,383.98 874.99,-299.44 637.2,670.25 -343.25,858.756 -921.95,-72.683 910.35,162.937 231.75,895.305 -724.84,574.355 -763.74,-521.523 708.79,594.053 -244.14,892.01 -914.49,137.86 -496.26,-780.39 176.03,907.9 -691.86,613.69 868.53,-317.72 642.12,665.56 -353.81,-854.46 555.36,-739.5 919.22,101.59 279.19,881.66 63,-922.67 826.3,-415.44 -921,84.04 -353.81,-854.46 268.13,885.09 -692.5,612.97 -840.83,-385.07 11.72,-924.744 -349.52,856.224 -914.91,135 900.8,209.39 173.2,908.45 171.48,-908.78 869.51,-315 713.76,588.08 -248.79,890.72 557.66,-737.76 918.9,104.46 377.9,844.11 -693.8,611.52 750.5,-540.38 804.2,456.59 -91.9,920.24 -878.7,288.46 923.3,53.32 424.1,821.84 -93.7,-920.05 803.4,-458.14 -915.4,132.15 -579.7,-720.59 325.2,-865.77 923.3,-53.16 -878.6,-288.62 -198.9,-903.18 684.1,-622.36 797.5,468.33 -747.6,-544.44 182.8,-906.553 903,-199.785 548.3,744.801 -237.5,-893.8203 648.5,-659.3517 -844.9,376.098 -685.9,-620.309 411.1,828.3986 -503.7,775.5784 -924,-38.785 -338.6,-860.606 v 924.817 l -796.1,470.717 -804.7,-455.729 90.9,-920.332 -421.6,823.109 -923.13,56.082 -508.51,-772.4647 416.45,-825.7423 -821.38,424.981 -826.62,-414.719 426.7,820.492 -498.85,778.738 860.6,-338.597 779.78,497.211 56.1,923.111 -772.46,508.52 923.91,40.7 510.14,771.4 38.77,-924 860.6,-338.61 -924.82,-0.04 -470.73,-796.05 455.71,-804.738 924.84,-5.774 -752.74,-537.336 -7.71,-924.782 -535.76,753.821 -920.52,-88.996 693.69,611.6173 -87.06,920.7077 -796.05,470.75 -804.74,-455.71 384.96,840.89 -454.02,805.69 -918.69,106.27 -469.08,-797.02 144.65,913.43 -712.6,589.48 -866.13,-324.19 -150.38,-912.51 -412.96,827.49 -912.19,152.3 828.36,411.23 56.12,923.11 495.55,-780.84 923,-58.05 589.48,712.59 -324.19,866.12 770.31,-511.77 866.81,322.38 -513.39,-769.23 582.01,-718.72 -649.83,658.04 -869.15,-316.01 -62.89,-922.67 818.22,-431.03 -919.23,101.48 -555.27,-739.57 245.9,891.53 -715.66,585.75 880.44,-283.01 691.79,613.76 -176.14,907.89 -901.48,206.47 914.47,137.97 346.75,857.35 -570.65,727.77 -896.48,-227.17 751.04,539.66 -82.21,921.16 -839.65,387.63 -754.41,-534.94 297.74,875.58 -533.35,755.53 874.95,-299.58 695.64,609.4 -206.48,-901.47 607.94,-696.91 921.15,82.19 387.64,839.65 178.03,-907.51 838.84,-389.4 -907.89,-176.13 -206.48,-901.46 -137.95,914.46 -857.35,346.77 -727.78,-570.63 132.2,-915.31 -643.57,664.14 -915.6,-130.28 665.5,642.18 -225.27,896.96 708.23,-594.73 897.43,223.39 346.77,857.34 -570.62,727.79 888.89,-255.26 728.98,569.1 -31.91,924.23 -858.07,345 924.79,-6.8 476.63,792.5 -449.74,808.1 -924.72,12.7 756.66,531.7 14.57,924.7 530.15,-757.8 921.16,82.2 -698.21,-606.5 80.23,-921.3 792.53,-476.6 808.1,449.7 -391.18,-838 448.03,-809.1 917.9,-113 380.6,842.8 -295.9,-876.2 672.8,-634.49 852.5,358.29 17.5,924.7 322.3,-866.8 910.2,-163.88 -907,-180.84 -201.8,-902.52 -142.7,913.74 -859.1,342.3 -732,-565.24 220.6,-898.13 -534.1,755 -921.75,-75.39 -393.83,-836.77 605.71,-698.86 -819.54,428.52 -786.04,-487.27 30.92,-924.3 816.83,-433.67 -916,-127.35 -435.38,-815.93 -125.44,916.27 -856.96,347.71 898.14,220.52 349.5,856.23 -487.27,786.04 -924.3,-30.9 730.8,566.75 -28.96,924.37 565.22,-731.99 898.14,220.52 -755.01,-534.08 75.37,-921.73 836.76,-393.85 758.36,529.32 -304.23,-873.34 527.73,-759.47 -872.7,306.06 -700.14,-604.22 213.16,899.91 -602.76,701.41 -921.74,-75.37 -393.85,-836.75 -171.3,908.81 -835.93,395.61 -811.4,-443.75 77.29,-921.58 -409.38,829.27 -922.18,69.77 -519.91,-764.84 404.16,-831.83 -814.99,437.11 -832.68,-402.41 438.83,814.08 -487.25,786.04 855.48,-351.32 787.07,485.6 69.78,922.18 -764.83,519.91 924.41,27 521.52,763.73 6167.97,-9839.759" /><path
             id="path68"
             style="fill:none;stroke:#500000;stroke-width:7.49100018;stroke-linecap:round;stroke-linejoin:round;stroke-miterlimit:10;stroke-dasharray:none;stroke-opacity:1"
             d="m 10024.9,317.141 -150.79,-912.442 872.29,-307.215 -791.17,478.883 -701.26,-602.927 367.41,-848.7 919.52,98.72 -905.37,-188.61 -206.34,-901.5 116.75,917.42 -841.33,383.98 874.99,-299.44 637.2,670.25 -343.25,858.756 -921.95,-72.683 910.35,162.937 231.75,895.305 -724.84,574.355 -763.74,-521.523 708.79,594.053 -244.14,892.01 -914.49,137.86 -496.26,-780.39 176.03,907.9 -691.86,613.69 868.53,-317.72 642.12,665.56 -353.81,-854.46 555.36,-739.5 919.22,101.59 279.19,881.66 63,-922.67 826.3,-415.44 -921,84.04 -353.81,-854.46 268.13,885.09 -692.5,612.97 -840.83,-385.07 11.72,-924.744 -349.52,856.224 -914.91,135 900.8,209.39 173.2,908.45" /><path
             id="path70"
             style="fill:none;stroke:#500000;stroke-width:7.49100018;stroke-linecap:round;stroke-linejoin:round;stroke-miterlimit:10;stroke-dasharray:none;stroke-opacity:1"
             d="m 8224.38,2993.74 171.48,-908.78 869.51,-315 713.76,588.08 -248.79,890.72 557.66,-737.76 918.9,104.46 377.9,844.11 -693.8,611.52 750.5,-540.38 804.2,456.59 -91.9,920.24 -878.7,288.46 923.3,53.32 424.1,821.84 -93.7,-920.05 803.4,-458.14 -915.4,132.15 -579.7,-720.59 325.2,-865.77 923.3,-53.16 -878.6,-288.62 -198.9,-903.18 684.1,-622.36 797.5,468.33 -747.6,-544.44 182.8,-906.553 903,-199.785 548.3,744.801 -237.5,-893.8203 648.5,-659.3517 -844.9,376.098 -685.9,-620.309 411.1,828.3986 -503.7,775.5784 -924,-38.785 -338.6,-860.606 v 924.817 l -796.1,470.717 -804.7,-455.729 90.9,-920.332 -421.6,823.109 -923.13,56.082" /><path
             id="path72"
             style="fill:none;stroke:#500000;stroke-width:7.49100018;stroke-linecap:round;stroke-linejoin:round;stroke-miterlimit:10;stroke-dasharray:none;stroke-opacity:1"
             d="m 9246.57,739.66 -508.51,-772.4647 416.45,-825.7423 -821.38,424.981 -826.62,-414.719 426.7,820.492 -498.85,778.738 860.6,-338.597 779.78,497.211 56.1,923.111 -772.46,508.52 923.91,40.7 510.14,771.4 38.77,-924 860.6,-338.61 -924.82,-0.04 -470.73,-796.05 455.71,-804.738 924.84,-5.774 -752.74,-537.336 -7.71,-924.782 -535.76,753.821 -920.52,-88.996 693.69,611.6173 -87.06,920.7077 -796.05,470.75 -804.74,-455.71 384.96,840.89 -454.02,805.69 -918.69,106.27 -469.08,-797.02 144.65,913.43 -712.6,589.48 -866.13,-324.19 -150.38,-912.51 -412.96,827.49 -912.19,152.3 828.36,411.23 56.12,923.11 495.55,-780.84 923,-58.05 589.48,712.59 -324.19,866.12" /><path
             id="path74"
             style="fill:none;stroke:#500000;stroke-width:7.49100018;stroke-linecap:round;stroke-linejoin:round;stroke-miterlimit:10;stroke-dasharray:none;stroke-opacity:1"
             d="m 5667.79,5310.14 770.31,-511.77 866.81,322.38 -513.39,-769.23 582.01,-718.72 -649.83,658.04 -869.15,-316.01 -62.89,-922.67 818.22,-431.03 -919.23,101.48 -555.27,-739.57 245.9,891.53 -715.66,585.75 880.44,-283.01 691.79,613.76 -176.14,907.89 -901.48,206.47 914.47,137.97 346.75,857.35 -570.65,727.77 -896.48,-227.17 751.04,539.66 -82.21,921.16 -839.65,387.63 -754.41,-534.94 297.74,875.58 -533.35,755.53 874.95,-299.58 695.64,609.4 -206.48,-901.47 607.94,-696.91 921.15,82.19 387.64,839.65 178.03,-907.51 838.84,-389.4 -907.89,-176.13 -206.48,-901.46 -137.95,914.46 -857.35,346.77 -727.78,-570.63 132.2,-915.31 -643.57,664.14 -915.6,-130.28" /><path
             id="path76"
             style="fill:none;stroke:#500000;stroke-width:7.49100018;stroke-linecap:round;stroke-linejoin:round;stroke-miterlimit:10;stroke-dasharray:none;stroke-opacity:1"
             d="m 9577.63,7760.11 -819.54,428.52 -786.04,-487.27 30.92,-924.3 816.83,-433.67 -916,-127.35 -435.38,-815.93 -125.44,916.27 -856.96,347.71 898.14,220.52 349.5,856.23 -487.27,786.04 -924.3,-30.9 730.8,566.75 -28.96,924.37 565.22,-731.99 898.14,220.52 -755.01,-534.08 75.37,-921.73 836.76,-393.85 758.36,529.32 -304.23,-873.34 527.73,-759.47 -872.7,306.06 -700.14,-604.22 213.16,899.91 -602.76,701.41 -921.74,-75.37 -393.85,-836.75 -171.3,908.81 -835.93,395.61 -811.4,-443.75 77.29,-921.58 -409.38,829.27 -922.18,69.77 -519.91,-764.84 404.16,-831.83 -814.99,437.11 -832.68,-402.41 438.83,814.08 -487.25,786.04 855.48,-351.32 787.07,485.6" /><path
             id="path78"
             style="fill:#672028;fill-opacity:1;fill-rule:evenodd;stroke:none"
             d="m 3856.93,10156.9 993.41,-309.19 476.85,924.69 -656.07,-807.47 563.31,-874.73 1002.43,278.57 31.21,1039.93 70.6,-1038 972.8,-368.94 -1004.21,272.08 -557.63,-878.36 469.1,928.66 -648.25,813.76 -1010.03,-249.56 -61.16,-1038.61 -40.67,1039.62 -961.77,396.85 -751.81,-719.24 463.9,-931.27 -552.72,881.46 -1031.68,-134.53 -294.11,-997.99 793.84,-672.52 -984.79,335.64 -790.203,-676.79 487.977,918.89 -643.106,817.85 897.642,-526.03 909.71,504.87 28.53,1040.06 -939.68,446.6 1037.92,-72.1 590.36,856.7 -236.19,-1013.2 897.64,-526.06 -944.76,435.76 -790.22,-676.77 299.47,-996.39 1032.39,-128.99 -1008.05,-257.48 -291.52,-998.74 -93.9,1036.18 -985.658,333.08 1039.198,50.43 485.59,920.14 -544.82,886.34 -1030.968,-139.9 908.398,507.2 25.83,1040.1 -882.107,551.7 -788.449,-678.8 718.316,752.7 -384.304,966.8 -1039.672,39.4 -456.464,-934.9 82.95,1037.1 -850.45,599.3 1010.72,-246.8 634.416,824.6 -288.926,-999.5 713.2264,-757.4 1015.0546,228.3 201.609,1020.7 185.61,-1023.8 975.65,-361.3 799.03,666.3 -399.43,960.7 491.43,-917 1038.44,64 361.37,975.6 -746.21,725 959.65,-401.9 834.44,621.4 -549.39,-883.5 585.93,-859.7 -859.75,585.9 -941.97,-441.8 -99.26,-1035.7 907.1,-509.5 -1030.61,142.5 -647.32,-814.5 384.27,-966.8 1039.67,-39.5 -982.09,-343.5 -204.32,-1020.13 783.12,-684.97 983.89,338.3 -599.37,-850.43 335.72,-984.77 -848.86,601.59 -944.28,-436.81 509.57,907.09 -434.33,945.42 -1020.16,204.32 -684.98,-783.11 96.57,1035.93 -781.317,687.07 1035.667,-99.3 509.58,907.1 -142.58,-1030.6 814.51,-647.39 966.87,384.25 L 3996.8,10879 4480.01,9957.6 5509.46,9806.93 4586.79,9326.14 4544.55,8286.59 3969.96,9153.94 2930.51,9198.9 2283.16,8384.41 2667.4,7417.54 1789.7,7976.2 821.828,7594.5 561.727,6587.13 1377.91,5941.91 382.309,6243.96 -384.492,5540.77 -156.25,4525.7 l 994.008,-307.27 -985.653,-333.1 -309.875,-993.2 -330.511,986.53 -1020.149,204.36 946.575,431.82 207.035,1019.61 -703.19,766.8 -1015.07,-228.23 689.1,779.49 -225.56,1015.67 777.67,-691.15 890.679,537.75 -833.849,-622.24 217.587,-1017.41 1018.508,-212.38 606.074,845.65 -254.848,-1008.72 738.519,-732.84 -955.359,412.02 -763.129,-707.18 451.6646,937.26 -576.8286,865.88 -1038.918,-55.73 -369.11,-972.75 -12.18,1040.35 -901.66,519.1 -899.02,-523.66 115.44,-1034 -485.57,920.16 -1039.19,50.46 -561,-876.21 480.73,-922.69 -930.05,466.35 -923.95,-478.32 468.78,928.82 -572.27,868.89 972.74,-369.12 870.38,569.99 50.48,1039.19 -876.21,561.02 1038.78,58.42 563.31,874.73 55.7,-1038.92 972.74,-369.13 -1040.35,-12.15 -519.13,-901.66 523.65,-899.03 1040.4,6.7 -839.38,-614.75 3.98,-1040.41 -612.56,840.98 -1034.29,-112.7 772.35,697.1 -109.99,1034.59 -901.64,519.13 -899.04,-523.64 422.04,950.98 -521.28,900.41 -1034.84,107.52 -516.78,-903 150.77,1029.44 -809.33,653.8 -969.88,-376.54 -156.2,-1028.63 -475.8,925.22 -1028.2,158.86 926.4,473.42 50.5,1039.19 567.7,-871.9 1039.06,-53.23 653.81,809.33 -376.53,969.9 873.23,-565.6 970.88,373.9 268.11,1005.3 -880.55,554.2 930.5,-465.5 811.22,651.5 -267.81,1005.4 -1027.79,161.5 1015.69,225.5 322.95,989 61.09,-1038.6 974.63,-364.1 -1040.27,-17.5 -514.44,-904.4 516.52,-903.1 1034.87,107.2 -923.98,-478.2 -58.71,-1038.8 871.73,-567.9 871.92,567.6 -603.94,-847.15 421.77,-951.1 1034.84,-107.57 608.37,844 1.18,-1040.41 842.41,-610.59 -1040.41,1.54 -519.19,-901.61 -107.22,1034.88 -900.25,521.55 -951.1,-421.76 -107.58,-1034.84 -518.87,901.8 -1034.55,110.3 903.16,516.5 -107.2,1034.88 478.22,-924 1038.76,-58.73 567.96,871.71 -473.38,926.5 926.31,-473.7 927.73,470.9 -476.16,-925.06 565.33,-873.41 -969.76,376.85 -874.9,-563.04 -58.74,-1038.76 871.71,-567.97 -1039.21,-50.16 -570.26,-870.22 368.84,-972.84 1038.9,-56.03 -987.44,-327.77 -220.52,-1016.77 772.11,-697.36 989.15,322.59 -612.83,-840.78 320,-989.98 -839.17,615.02 -951.11,-421.72 523.93,898.86 -419.22,952.22 -1016.78,220.54 -697.36,-772.11 113.05,1034.25 -770.28,699.39 11908.3,5349.96" /><path
             id="path80"
             style="fill:none;stroke:#500000;stroke-width:7.49100018;stroke-linecap:round;stroke-linejoin:round;stroke-miterlimit:10;stroke-dasharray:none;stroke-opacity:1"
             d="m 3269.22,9355.47 783.12,-684.97 983.89,338.3 -599.37,-850.43 335.72,-984.77 -848.86,601.59 -944.28,-436.81 509.57,907.09 -434.33,945.42 -1020.16,204.32 -684.98,-783.11 96.57,1035.93 -781.317,687.07 1035.667,-99.3 509.58,907.1 -142.58,-1030.6 814.51,-647.39 966.87,384.25 L 3996.8,10879 4480.01,9957.6 5509.46,9806.93 4586.79,9326.14 4544.55,8286.59 3969.96,9153.94 2930.51,9198.9 2283.16,8384.41 2667.4,7417.54 1789.7,7976.2 821.828,7594.5 561.727,6587.13 1377.91,5941.91 382.309,6243.96 -384.492,5540.77 -156.25,4525.7 l 994.008,-307.27 -985.653,-333.1 -309.875,-993.2 -330.511,986.53 -1020.149,204.36 946.575,431.82 207.035,1019.61 -703.19,766.8 -1015.07,-228.23" /><path
             id="path82"
             style="fill:none;stroke:#500000;stroke-width:7.49100018;stroke-linecap:round;stroke-linejoin:round;stroke-miterlimit:10;stroke-dasharray:none;stroke-opacity:1"
             d="m -2373.08,6073.02 689.1,779.49 -225.56,1015.67 777.67,-691.15 890.679,537.75 -833.849,-622.24 217.587,-1017.41 1018.508,-212.38 606.074,845.65 -254.848,-1008.72 738.519,-732.84 -955.359,412.02 -763.129,-707.18 451.6646,937.26 -576.8286,865.88 -1038.918,-55.73 -369.11,-972.75 -12.18,1040.35 -901.66,519.1 -899.02,-523.66 115.44,-1034 -485.57,920.16 -1039.19,50.46 -561,-876.21 480.73,-922.69 -930.05,466.35 -923.95,-478.32 468.78,928.82 -572.27,868.89 972.74,-369.12 870.38,569.99 50.48,1039.19 -876.21,561.02 1038.78,58.42 563.31,874.73 55.7,-1038.92 972.74,-369.13 -1040.35,-12.15 -519.13,-901.66 523.65,-899.03 1040.4,6.7 -839.38,-614.75 3.98,-1040.41" /><path
             id="path84"
             style="fill:#692031;fill-opacity:1;fill-rule:evenodd;stroke:none"
             d="m -8051.37,4806.94 493.9,1045.2 -944.03,667.23 786.98,-846.79 1049.6,484.48 -152.04,1145.98 -1139.62,194.03 1153.09,-82.3 555.9,1013.58 -454.71,-1062.83 880.57,-748.98 -949.23,659.81 -995.68,-587.37 118.36,-1149.94 1133.44,-227.37 -1150.18,116.09 -585.39,-996.84 675.5,-938.12 1096.05,367.5 -1055.12,-472.34 -10.97,-1155.96 1053.06,-476.89 861.57,770.76 -520.57,-1032.17 623.43,-973.505 -935.9,678.585 -998.75,-582.128 717.18,906.668 -415.32,1078.83 -1140.02,191.69 -635.77,-965.49 239.26,1130.99 -851.69,781.66 1078.33,-416.64 717.19,906.66 -625.64,-972.09 622.4,-974.17 1142.55,175.95 300.47,1116.29 127.95,-1148.92 1054.05,-474.72 -1154.61,56.99 -518.45,-1033.245 105.3,1151.215 -937.3,676.64 -1059.54,-462.32 -4.97,-1156.01 -417.55,1077.98 -1140.41,189.33 -743.5,-885.22 625.4,-972.216 -717,906.796 -1123.2,-273.26 -203.7,-1137.9345 958.8,-645.8865 -1128.4,251.136 -790.6,-843.435 427.9,1073.8964 -809.5,825.1956 1055,-472.539 943.8,667.558 -94.2,1152.179 -1092,379.18 1155.1,45.83 548.5,1017.58 -610,981.94 -1118.6,-292.02 1084.9,399.4 89.6,1152.53 -1018.1,547.49 -912.1,-710.31 589.7,994.33 -555.7,1013.7 887.5,-740.74 1036.1,512.77 -777.3,-855.73 340.9,-1104.61 1124.3,-268.86 700.1,919.96 -315.8,-1112.08 796.54,-837.84 1122.98,274.4 202.52,1138.14 227.12,-1133.49 1091.25,-381.51 873.64,757.06 -222.36,1134.43 844.22,-789.73 1135.12,218.8 -792.37,-841.74 336.25,-1106.03 -919.95,700.05 -1107.09,-332.77 -381.52,-1091.25 757.04,-873.65 -1125.14,265.36 -876.04,-754.28 268.9,1124.31 -919.94,700.06 1112.07,-315.75 837.86,796.47 -274.35,1122.99 -1110.73,320.41 1088.15,390.23 323.91,1109.72 386.81,-1089.39 1137.49,-206.12 -1042.98,-498.57 -209.71,-1136.84 796.45,-837.87 1123,274.34 -750.04,-879.67 270.81,-1123.86 1068.39,-441.496 835.37,799.076 -485.85,-1048.962 655.57,-952.164 1152.08,95.273 490.25,1046.918 215.17,-1135.816 1045.375,-493.539 -1136.485,-211.6 -381.57,-1091.23 -329.23,1108.14 -1090.03,384.998 -952.17,-655.548 95.25,-1152.09 -751.48,878.43 -1152.38,-91.63 880.79,748.72 -454.41,1062.9658 555.61,-1013.7458 1153.11,81.97 390.72,1087.9906 -837.52,796.8324 1070.67,-435.934 920.25,699.661 -601.17,-987.407 660.51,-948.738 -961.37,641.988 -1041.96,-500.688 -99.44,-1151.735 1013.46,-556.12 -1146.56,147.59 -710.68,-911.76 437.63,-1069.98 1155.58,-31.78 -1087.37,-392.43 -215.73,-1135.71 878.05,-751.93 1089.01,387.87 -656.03,-951.84 384.45,-1090.22 -949.77,659.02 -1044.07,-496.29 556.14,1013.45 -493.02,1045.62 -1135.7,215.75 -751.94,-878.05 95.85,1152.04 -875.67,754.7 1151.73,-99.48 556.14,1013.45 -147.62,-1146.56 911.74,-710.7 1069.99,437.6 152.43,1145.92 547.05,-1018.39 1145.43,-156.03 -1020.1,-543.84 -35.45,-1155.48 -647.49,957.68 -1155.35,39.08 -710.73,-911.73 437.58,-1070 -981.02,611.53 -1071.37,-434.21 -278.46,-1121.98 913.96,-707.87 -1109.34,325.2 -844.61,-789.34 264.8,-1125.3 1107.96,-329.8 -1091.44,-381 -333.33,-1106.9 -377.53,1092.6 -1135.66,215.8 1047.15,489.7 219.37,1135 -789.32,844.65 -1125.3,-264.78 757.5,873.26 -261.2,1126.12 -1064.6,450.57 -745.6,-883.49 656.1,951.79 -591.2,993.39 -1147.5,-139.69 -335.7,-1106.21 -91.5,1152.39 -1038.5,507.86 1152.2,-93.52 550.9,1016.31 -141.7,-1147.3 915.4,-705.99 1073.7,428.55 41.6,1155.27 383.2,-1090.66 1133.8,-225.35 759.35,871.65 -490.75,1046.7 839.11,-795.18 1111.57,317.45 277.34,1122.26 -835.74,798.69 1145.09,-158.52 801.32,833.23 -162.12,-1144.59 912.43,-709.84 -1155.27,41.59 -712.7,-910.18 317.44,-1111.58 1122.25,-277.36 -1072.31,-431.89 -280.88,-1121.37 -428.52,1073.66 -1155.26,41.6 1090.66,383.18 225.38,1133.83 -871.63,759.37 -1092.26,-378.6 664.1,946.23 -375.16,1093.45 944.14,-667.08 1048.24,487.41 -564.73,-1008.69 484.1,-1049.78 1133.83,-225.4 759.38,871.62 -105.65,-1151.18 869.23,-762.12 1127.48,255.25 221.85,1134.53 207.81,-1137.18 1084.6,-400.01 886.4,742.08 -203.04,1138.05 830.668,-803.97 1138.68,199.46 -806.578,-828.14 317.387,-1111.59 -907.907,715.6 -1112.59,-313.89 -400.02,-1084.6 742.07,-886.41 -1120.48,284.46 -888.73,-739.27 -4045.85,13918.34" /><path
             id="path86"
             style="fill:#732037;fill-opacity:1;fill-rule:evenodd;stroke:none"
             d="m 11765.1,-6850.79 -918.8,-1039.31 865.9,-1083.82 -623.7,1239.12 -1371.67,-207.23 -206.7,-1371.74 1249.67,-602.21 -1301.8,479.21 -978.68,-983.13 879.57,1072.71 -765.47,1156.92 873.2,-1077.92 1343.98,343.82 248.2,1364.82 -1230.77,639.91 1286.67,-518.55 1008.1,952.96 -466,1306.6 -1386,-59.77 1373.8,192.81 397.9,1328.92 -1055.9,899.65 -1248.84,-603.96 943.04,1017.34 -395.5,1329.62 852.7,-1094.21 1345,339.56 -1129,-806.13 119.2,-1382.09 1250.3,-600.97 1053.8,902.18 -652.8,-1224.02 721.2,-1184.98 -1103.3,840.88 -1129,-806.11 1046.2,910.97 -391.3,1330.87 -1375.8,178.02 -717.2,-1187.43 235.5,1367.09 -1056.89,898.59 1311.49,-451.93 942.1,1018.28 -506.5,-1291.46 853.8,-1093.35 1375.8,178.33 391,1330.97 120.6,-1381.98 1250.9,-599.7 1152.9,771.41 -396.9,1329.23 523,-1284.89 1385.8,-60.86 614.1,1243.89 -891,1063.22 1217.1,-665.65 1192.5,708.75 -852.5,-1094.4 658.2,-1221.13 -1057.7,897.52 -1311,-453.57 -277,-1359.29 1132.6,-801.14 -1346.6,333.62 -972.6,-989.16 376,-1335.31 1386.8,-34.77 -1383.7,-98.79 -487.6,-1298.72 992.2,-969.52 1287.1,517.52 -1010.2,-950.72 304.1,-1353.5 -776.2,1149.8 -1365,-247.2 1181.3,727.4 -24.8,1386.96 -1206.5,684.74 -1112.7,-828.31 734.6,1176.71 -638.8,1231.35 -1386.1,56.6 -610.3,-1245.79 114.6,1382.48 -1131.6,802.38 -1258.26,-584.11 -117.49,-1382.24 -712.43,1190.31 -1381.73,123.29 1193.28,707.43 -21.81,1387.05 828.28,-1112.81 1387.16,16 802.4,1131.61 -584.1,1258.27 1209.3,-679.72 1260.7,578.8 -684.8,-1206.42 828.3,-1112.82 -1176.7,734.7 -1231.4,-638.82 -56.7,-1386.06 1175.2,-737.18 -1384.4,-88.54 -742.1,-1172.04 -82.7,1384.75 -1243.23,615.53 1368.53,227.02 620.7,1240.6 -638.8,1231.39 -1386.04,56.67 1157.84,764.01 62.5,1385.81 L 9214.3,-914.176 7985.59,-1558.11 8895.37,-510.883 8457.09,805.285 7096.95,1078.11 6184.99,32.7891 6314.15,1413.98 5272.66,2330.33 6653.3,2195.38 l 802.47,1131.56 10.09,-1387.19 1128.19,-807.2 1316.18,438.26 272.87,1360.12 573.4,-1263.15 1359,-278.56 L 10849.9,821.094 11019.4,-555.738 10718.3,798.41 9361.99,1089.77 8548.88,-34.1602 9249.93,-1231.2 8161.04,-371.723 6866.96,-871.465 7890.13,65.2852 7445.02,1379.16 8338.1,317.656 l 1368.3,228.356 500,1293.988 -982.91,978.95 1271.91,-553.72 1124.1,812.93 -147.8,1379.33 -1321.9,420.51 1384.3,89.86 627.3,1237.28 -762.7,1158.73 -1384.5,-86.96 1072.7,879.65 -81.2,1384.85 875.2,-1076.34 1368.7,225.45 -978.9,-982.85 219.7,-1369.71 1237.2,-627.35 1158.8,762.68 -494.6,-1296.06 757.8,-1161.93 -1293.9,500.02 -979,-982.84 553.7,1271.9 -812.8,1124.1 -1379.4,-147.7 -556.4,-1270.73 -291.1,1356.34 -1268.38,561.77 1357.58,285.37 426.1,1320.16 425.7,-1320.28 1318.4,-431.64 1124.1,812.85 -147.7,1379.34 925.9,-1033 1379.9,141.89 696.4,1199.8 -817.6,1120.71 1169.6,-745.96 1237.5,626.98 69.9,1385.42 -1168,748.5 1385.2,75.2 753.3,1164.9 69.4,-1385.5 1237.3,-627.4 -1370.7,-213.9 -632.6,-1234.6 627,-1237.46 1385.4,-69.97 -1165.1,-752.87 -75.8,-1385.15 1076.1,-875.48 1153.9,769.86 -1074.5,-877.29 348.9,-1342.63 1369.4,-221.6 754.6,1164.05 -278.8,-1358.92 1027.8,-931.69 -1296.5,493.35 -974,-987.87 547.2,1274.74 -818.6,1119.9 -1380.7,-134.57 -433.1,-1317.88 -76.6,1385.11 -1231.3,639.12 -1165.9,-751.6 218.1,-1369.97 -702.1,1196.42 -1387.2,4.69 -692.7,-1201.92 699.6,-1197.89 -1267.7,563.21 -1200.8,-694.57 568.5,1265.37 -816.3,1121.64 1317.9,-433.15 1125,811.57 4.7,1387.21 -1201.9,692.67 1380.1,140.3 697.7,1199 134.6,-1380.68 1317.8,-433.17 -1385.1,-76.58 -639.2,-1231.2 751.6,-1166 1385.3,73.67 -1081.1,-869.32 67.9,-1385.56 -864.8,1084.69 -1370.9,-212.31 988.4,973.41 -206.6,1371.76 -1231.2,639.19 -1166,-751.53 507,1291.26 -746.6,1169.15 -1384.8,83.17 -634,-1233.84 141.1,1380.03 L 9091.67,7932.81 7822.44,7372.95 7678.45,5993.22 6989,7196.98 l -1379.12,149.78 1206.64,684.4 4.8,1387.21 806.78,-1128.49 1387.18,-10.62 823.97,1116.01 -559.84,1269.23 1195.99,-702.79 1271.6,554.49 18.1,-17366.99" /><path
             id="path88"
             style="fill:none;stroke:#500000;stroke-width:7.49100018;stroke-linecap:round;stroke-linejoin:round;stroke-miterlimit:10;stroke-dasharray:none;stroke-opacity:1"
             d="m 11107.2,-5711.78 -1258.26,-584.11 -117.49,-1382.24 -712.43,1190.31 -1381.73,123.29 1193.28,707.43 -21.81,1387.05 828.28,-1112.81 1387.16,16 802.4,1131.61 -584.1,1258.27 1209.3,-679.72 1260.7,578.8 -684.8,-1206.42 828.3,-1112.82 -1176.7,734.7 -1231.4,-638.82 -56.7,-1386.06 1175.2,-737.18 -1384.4,-88.54 -742.1,-1172.04 -82.7,1384.75 -1243.23,615.53 1368.53,227.02 620.7,1240.6 -638.8,1231.39 -1386.04,56.67 1157.84,764.01 62.5,1385.81 L 9214.3,-914.176 7985.59,-1558.11 8895.37,-510.883 8457.09,805.285 7096.95,1078.11 6184.99,32.7891 6314.15,1413.98 5272.66,2330.33 6653.3,2195.38 l 802.47,1131.56 10.09,-1387.19 1128.19,-807.2 1316.18,438.26 272.87,1360.12" /><path
             id="path90"
             style="fill:none;stroke:#500000;stroke-width:7.49100018;stroke-linecap:round;stroke-linejoin:round;stroke-miterlimit:10;stroke-dasharray:none;stroke-opacity:1"
             d="m 10183.1,2930.93 573.4,-1263.15 1359,-278.56 L 10849.9,821.094 11019.4,-555.738 10718.3,798.41 9361.99,1089.77 8548.88,-34.1602 9249.93,-1231.2 8161.04,-371.723 6866.96,-871.465 7890.13,65.2852 7445.02,1379.16 8338.1,317.656 l 1368.3,228.356 500,1293.988 -982.91,978.95 1271.91,-553.72 1124.1,812.93 -147.8,1379.33 -1321.9,420.51 1384.3,89.86 627.3,1237.28 -762.7,1158.73 -1384.5,-86.96 1072.7,879.65 -81.2,1384.85 875.2,-1076.34 1368.7,225.45 -978.9,-982.85 219.7,-1369.71 1237.2,-627.35 1158.8,762.68 -494.6,-1296.06 757.8,-1161.93 -1293.9,500.02 -979,-982.84 553.7,1271.9 -812.8,1124.1 -1379.4,-147.7 -556.4,-1270.73 -291.1,1356.34 -1268.38,561.77" /><g
             transform="scale(1.45466)"
             id="g92"><path
               id="path94"
               style="fill:none;stroke:#500000;stroke-width:5.14967012;stroke-linecap:round;stroke-linejoin:round;stroke-miterlimit:10;stroke-dasharray:none;stroke-opacity:1"
               d="m 6271.12,4419.02 933.25,196.18 292.92,907.55 292.66,-907.63 906.3,-296.73 772.78,558.79 -101.52,948.23 636.49,-710.13 948.7,97.54 478.7,824.79 -562.1,770.44 804.1,-512.81 850.6,431.01 48.1,952.43 -802.9,514.5 952.2,51.74 517.9,800.78 47.7,-952.45 850.5,-431.32 -942.2,-147.03 -434.9,-848.71 431,-850.69 952.4,-48.1 -800.9,-517.56 -52.1,-952.22 739.7,-601.85 793.3,529.24 -738.7,-603.1 239.9,-922.98 941.4,-152.34 518.7,800.23 -191.6,-934.19 706.5,-640.49 -891.3,339.15 -669.5,-679.11 376.2,876.32 -562.8,769.87 -949.2,-92.51 -297.7,-905.97 -52.7,952.19 -846.4,439.36 -801.5,-516.69 149.9,-941.78" /></g><g
             transform="scale(1.05456)"
             id="g96"><path
               id="path98"
               style="fill:none;stroke:#500000;stroke-width:7.10346985;stroke-linecap:round;stroke-linejoin:round;stroke-miterlimit:10;stroke-dasharray:none;stroke-opacity:1"
               d="m 16214.9,2776.7 -665.8,1134.52 -1315.5,4.45 -656.8,-1139.74 663.4,-1135.92 -1202.1,534.07 -1138.7,-658.63 539.1,1199.9 -774.1,1063.61 1249.7,-410.74 1066.9,769.59 4.5,1315.45 -1139.8,656.83 1308.7,133.05 661.6,1136.97 127.6,-1309.26 1249.7,-410.76 -1313.5,-72.62 -606.1,-1167.51 712.7,-1105.67 1313.6,69.86 -1025.1,-824.35 64.3,-1313.88 -820,1028.58 -1300,-201.33 937.3,923.05 -195.9,1300.8 -1167.5,606.12 -1105.7,-712.66 480.8,1224.46 -708,1108.67 -1313.1,78.87 -601.27,-1170.01 133.79,1308.63 -1058.29,781.32 -1203.57,-530.89 -136.54,-1308.36 -653.79,1141.49 -1307.76,142.03 1144.21,648.99 4.56,1315.45 765.04,-1070.11 1315.41,-10.07" /></g><path
             id="path100"
             style="fill:#752040;fill-opacity:1;fill-rule:evenodd;stroke:none"
             d="m 11747,10516.2 973.5,-1144.93 1294.8,762.83 -1424.6,-478.58 11.6,-1502.78 1439.5,-431.57 836.4,1248.55 -713.1,-1322.84 904.6,-1200.04 -1015.3,1107.98 -1357.9,-643.92 1290.1,770.88 -162.3,1494.03 -1425.5,475.86 -874.6,-1222.1 753.7,1300.17 -867.2,1227.46 -1472.56,-299.9 -147.19,-1495.6 3.43,1502.8 -1364.33,630.2 -1125.92,-995.4 458.14,-1431.31 -947.37,1166.61 -1486.4,-221.58 1303.99,747.08 -159.14,1494.3 691.8,-1334.1 1500.49,-83.7 835.84,1249 -806.98,1267.8 1212.84,-887.4 1381.26,592.2 -1071.2,-1054.1 691.7,-1334.1 -816.2,1261.8 L 8605.58,11516.5 8204.14,10068.3 9368.37,9118 7938.23,9579.73 6812.8,8583.8 7498.89,9920.87 6550.96,11087 l 1307.17,-741.5 1303.63,747.7 20.04,1502.7 -1367.57,623.1 1500.53,-83 835.24,1249.4 -650.18,1354.9 -1486.29,-222.3 1458.21,363.4 278.13,1476.9 -1240.07,849 -1276.21,-793.6 900.14,1203.4 -577.64,1387.4 1042.71,-1082.3 1410.4,519.1 -1125,-996.5 285.04,-1475.5 1415.16,-505.8 1032.5,1092 -564.6,-1392.8 911.4,-1194.9 1489.6,198.8 248.8,1482.1 -105.8,-1499.1 1318.2,-721.6 1191.1,916.4 -359.6,1459.2 865.7,-1228.5 1498.1,119.8 -1351.9,-656.5 57,-1501.7 -599.3,1378.1 -1491.3,185.7 -919,-1189 718.7,-1319.9 -1149.6,968 -1418.3,-496.7 -272.1,-1478 1243.6,-843.8 -1465.3,333.7 -1033.1,-1091.42 435.4,-1438.38 1464.9,-335.23 -1385,-583.35 -342.1,-1463.36 -576.8,1387.73 -1491.13,187.31 1319.83,718.69 194.3,1490.21 -1091.31,1033.2 -1438.39,-435.4 913.42,1193.4 -428.56,1440.4 1189.05,-919 1319.89,718.6 -968.07,-1149.5 496.67,-1418.4 1478,-272.1 969.2,1148.5 -116.1,-1498.3 1143.9,-974.65 -1497.8,123.2 -849.7,-1239.53 -34,1502.44 L 9899.27,10055.4 8480.88,9558.8 8208.74,8080.82 7566.57,9439.53 6089.89,9718.63 4996.11,8688.04 5499.41,7272 4515.52,8407.97 3036.89,8139.36 2536.88,6722.16 3519.57,5585.15 2057.87,5934.29 916.234,4956.97 1272.27,6417.01 180.977,7450.24 1670.23,7248.76 2708.6,8335.17 2440.02,9813.8 l -1417.19,500 1442.46,421.7 506.73,1414.8 414.84,-1444.4 1502.55,-29 L 3390.98,10562 2870.19,9152.31 3951.13,8108.25 5341.91,8677.63 4253.5,7641.38 4591.39,6177.03 3744,7418.16 2266.79,7141.88 l 1275.53,794.67 -34.69,1502.43 -1310.86,734.92 -1200.325,-904.26 789.185,1278.96 -699.1,1330.3 -1501.901,52.6 -652.599,-1353.7 115.497,1498.4 -1230.917,862.1 -1359.11,-641.3 -117.07,-1498.3 -779.89,1284.7 -1497.69,124.1 1288.29,773.8 -33.09,1502.5 904.24,-1200.4 1502.6,26 862.18,1230.9 -641.31,1359.1 1314.283,-728.8 1362.125,634.9 -734.992,-1310.8 904.219,-1200.3 -1278.899,789.2 -1330.346,-699 -52.72,-1501.9 1278.07,-790.6 -1499.18,-104.6 -796.61,-1274.31 -97.49,1499.61 -1350.6,659.1 1481.25,253.7 665.42,1347.5 -699.02,1330.3 -1501.9,52.8 1250.02,834.2 59.83,1501.7 -1179.67,931 -1327.07,-705.2 979.64,1139.6 -482.26,1423.3 -1475.15,287.1 -980.84,-1138.6 131.31,1497.1 -1133.97,986.2 1496.44,-138.4 862.26,1230.8 18.8,-1502.7 1226.77,-868 1423.35,482.2 287.1,1475.2 628.37,-1365.2 1473.77,-294.1 1104.1722,1019.5 -649.0082,1355.5 775.7074,-1287.2 1493.4186,167.9 447.27,1434.7 -1133.427,986.9 1414.727,-507 1156.53,959.7 -728.25,-1314.6 910.38,-1195.7 -1282.93,782.6 -1326.75,-705.8 -67.797,-1501.3 1347.077,-666.3 -1497.139,130.7 -874.5393,-1222.2 627.5933,-1365.5 1502.615,25 -1390.591,-569.8 -217.379,-1487.1 1183.49,-926.2 1391.19,568.4 -797.42,-1273.8 561.82,-1393.8 -1270.04,803.4 -1327.493,-704.5 666.266,1347.1 -698.165,1330.8 -1487.018,217.4 -926.22,-1183.5 60.79,1501.6 -1179.09,931.8 1501.3,-67.8 666.29,1347 -130.68,-1497.1 1222.1128,-874.6 1365.5372,627.5 132.26,1497 766.82,-1292.5 1496.36,-139.3 -1296.07,-760.7 17.85,-1502.7 -892.03,1209.4 -1502.78187,-10.7 -874.61713,-1222.1 627.5,-1365.6 -1306.821,742.1 -1368.5,-621 -301.94,-1472.2 1226.19,-868.9 -1458.24,363.4 -1055.05,-1070.24 406.13,-1446.91 1457.86,-364.87 -1396.53,-555.14 -371.75,-1456.12 -548.54,1399.13 -1487,217.51 1334.12,691.79 224.53,1485.95 -1070.19,1055.1 -1446.92,-406.1 937.43,1174.6 -399.26,1448.8 L 11747,10516.2" /><path
             id="path102"
             style="fill:none;stroke:#500000;stroke-width:7.49100018;stroke-linecap:round;stroke-linejoin:round;stroke-miterlimit:10;stroke-dasharray:none;stroke-opacity:1"
             d="m 10429.2,9983.38 435.4,-1438.38 1464.9,-335.23 -1385,-583.35 -342.1,-1463.36 -576.8,1387.73 -1491.13,187.31 1319.83,718.69 194.3,1490.21 -1091.31,1033.2 -1438.39,-435.4 913.42,1193.4 -428.56,1440.4 1189.05,-919 1319.89,718.6 -968.07,-1149.5 496.67,-1418.4 1478,-272.1 969.2,1148.5 -116.1,-1498.3 1143.9,-974.65 -1497.8,123.2 -849.7,-1239.53 -34,1502.44 L 9899.27,10055.4 8480.88,9558.8 8208.74,8080.82 7566.57,9439.53 6089.89,9718.63 4996.11,8688.04 5499.41,7272 4515.52,8407.97 3036.89,8139.36 2536.88,6722.16 3519.57,5585.15 2057.87,5934.29 916.234,4956.97 1272.27,6417.01 180.977,7450.24 1670.23,7248.76 2708.6,8335.17 2440.02,9813.8 l -1417.19,500" /><path
             id="path104"
             style="fill:#812049;fill-opacity:1;fill-rule:evenodd;stroke:none"
             d="m 7205.2,-15216.4 -1779.73,-503.6 194.03,-1839.4 193.42,1839.4 -1688.02,756.2 -1217.58,-1392.4 974.43,-1572.1 -1118.05,1473.4 -1805.575,-401.3 1759.795,569.5 -28.74,1849.4 202.66,-1838.5 1755.37,-582.9 1262.17,1352 -922.84,1603 1069.59,-1509 1817.65,342.4 415.17,1802.4 -1601.64,925.2 1681.6,-770.3 1401.67,1206.8 -543.51,1768 -1837.55,211.01 1789.19,468.98 507.1,1778.76 171.74,-1841.64 1755.95,-581.11 -1847.21,-94.5 -859.01,-1638.1 972.66,-1573.2 1831.26,260.2 -1612.6,-905.9 -41.1,-1849.2 -631.61,1738.5 -1847.22,-94.5 1830.14,267.9 520.2,1774.9 -1417.42,1188.3 -1656.95,-822 1246.61,1366.5 -541.55,1768.54 1145.47,-1452.24 1789.73,467 -1498.97,-1083.6 169.69,-1841.9 1671.68,-791.5 1395.5,1214.1 -860.9,-1637.1 971,-1574.4 1849.3,34.4 509.1,1778.1 -339.5,-1818.2 1510.7,-1067.1 1583.4,956 -240.9,1833.8 888.9,-1622 1848.6,-60.6 -1745,-613.2 -138,-1844.5 -539.6,1769.2 -1797.4,436.1 -1290.5,-1325.1 696.5,-1713.5 -1269.9,1344.8 -1803.9,-408.6 -537.1,-1769.9 1534.9,-1032.2 -1625.2,883.2 -1480.7,-1108.5 421.7,-1800.9 1818.9,-335.8 -1817,-346 -627.16,-1740 -45.8,1849.1 -1712.26,699.5 1849.36,-31.7 968.66,1575.7 -863.14,1635.8 -1844.72,-134.7 1670.59,793.9 167.08,1842 -1518.41,1056.2 -1576.44,-967.4 1118.88,1472.8 -698.18,1712.8 -1833.96,240.3 -1115.79,-1475.2 47.23,1849 -1468.12,1125.1 1848.69,-58.9 965.43,1577.7 134.69,-1844.7 1571.57,-975.4 1712.82,698.2 240.3,1833.9 873.38,-1630.5 1832.4,-251.8 -1636,-863 134.7,-1844.8 -793.81,1670.7 -1842.06,167.2 -1056.3,-1518.4 797.28,-1669 -1620.44,891.8 -1673.96,-786.7 901.99,1614.8 -957.42,1582.5 1700.22,-728.2 1588.55,947.4 167.24,1842.1 -1518.32,1056.3 1849.45,26.2 1065.87,1511.67 -596.42,1750.83 -1843.07,155.69 1774.27,522.57 453.39,1793.21 -1334.34,1280.88 -1773.18,-526.28 1134.4,1460.92 -515.12,1776.451 1453.75,-1143.571 1712.88,697.981 -985.35,-1565.321 687.19,-1717.24 1793.21,-453.43 1280.9,1334.3 -263.5,-1830.76 1326.2,-1289.29 -1829.1,275.03 -798.9,-1668.18 638.4,1735.96 -1311.3,1304.5 -1720.79,-678.13 -68.81,-1848.35 -605.47,1747.72 -1812.55,368.52 1822.93,313.15 444.1,1795.52 236.53,-1834.44 1699.36,-730.22 1493.6,1091 -400.5,1805.74 1027.5,-1537.97 1846.8,101.5 825.2,1655.39 -1185.6,1419.673 1619.3,-893.733 1593.6,938.908 -27.9,1849.422 -1621.2,890.34 1836.3,221.1 900.6,1615.6 209.5,-1837.72 1700.9,-726.73 -1805.8,-400.472 -737.4,-1696.274 938.9,-1593.634 1849.4,27.88 -1486.8,-1100.29 16.3,-1849.56 -1090.9,1493.66 -1805.8,-400.43 1538,1027.41 -101.4,1846.85 -1655.3,825.227 L 14125.3,-1722.34 14773,10.1836 13752.1,1552.53 15480.5,893.957 16907.7,2070.51 16433.4,282.727 l 1167.5,-1434.557 1846.9,101.34 825.2,1655.314 293.9,-1826.144 1650,-835.67 1646,843.74 -112.9,1846.176 774.1,-1679.866 1839.9,-188.86 1074.1,1505.8 -777.5,1678.25 1609.8,-910.82 1683.1,766.99 -920.9,-1604.061 938.7,-1593.719 -1691.6,748.227 -1599.5,-928.677 -189,-1839.95 1505.8,-1074.15 -1849.6,-4.44 -1083.6,-1498.98 575.8,-1757.73 1849.3,35.41 -1837.8,-209.28 -576.6,-1757.47 1378.8,-1232.9 1682.3,768.7 -1289.6,-1326 484.9,-1784.9 -1098.6,1488 -1803.7,-409.6 1532.8,1035.2 -110.8,1846.35 -1645.6,844.46 -1433.5,-1168.88 912.6,1608.79 -920.1,1604.5 -1849.6,-6.27 -736,-1696.93 71.2,1848.27 -1554.6,1002.13 -1639.9,-855.61 -67.3,-1848.4 -1022.3,1541.43 -1848,78.96 1547.9,1012.6 -114.6,1846.07 1168.8,-1433.5 1846.8,103 1002.1,1554.6 -855.5,1639.87 1650.8,-834.19 1645.2,845.22 -844.5,-1645.56 1168.8,-1433.53 -1608.8,912.73 -1604.5,-920.08 6.1,-1849.62 1610.7,-909.37 -1838.9,-199.46 -919.5,-1604.89 -187.8,1840.06 -1692.2,746.7 1810.3,379.19 757.3,1687.48 -920,1604.57 -1849.6,-6.11 1499.6,1082.72 5.5,1849.6195 L 15908.4,1016.68 14309.6,86.6094 15462.9,1532.7 l -657.7,1728.76 -1827.8,283.36 -1150.2,-1448.49 90.8,1847.4 -1441.3,1159.31 1846.8,-102.38 1002.3,1554.51 91.3,-1847.38 1548.1,-1012.08 1728.8,657.61 283.4,1827.79 834.7,-1650.57 1826,-294.91 L 7205.2,-15216.4" /><g
             transform="scale(1.24215)"
             id="g106"><path
               id="path108"
               style="fill:none;stroke:#500000;stroke-width:6.03066015;stroke-linecap:round;stroke-linejoin:round;stroke-miterlimit:10;stroke-dasharray:none;stroke-opacity:1"
               d="m 10004.2,-2516.31 -212.1,-1473.86 1067.7,-1037.95 -1472.53,221.42 -643.19,-1342.97 513.96,1397.54 -1055.64,1050.19 -1385.36,-545.94 -55.39,-1488.01 -487.44,1407.01 -1459.2,296.67 1467.56,252.11 357.52,1445.49 190.42,-1476.83 1368.1,-587.87 1202.43,878.32 -322.46,1453.72 827.19,-1238.16 1486.83,81.72 664.3,1332.68 -954.5,1142.912 1303.7,-719.502 1282.9,755.871 -22.5,1488.884 -1305.2,716.775 1478.4,177.99 725,1300.65 168.7,-1479.46 1369.3,-585.059 -1453.8,-322.405 -593.6,-1365.591 755.8,-1282.965 1488.9,22.45 -1196.9,-885.8 13,-1488.99 -878.2,1202.48 -1453.7,-322.37 1238.2,827.12 -81.7,1486.81 -1332.6,664.356 -1236.5,-829.706 521.5,1394.77834 -822,1241.67166" /></g><path
             id="path110"
             style="fill:#832052;fill-opacity:1;fill-rule:evenodd;stroke:none"
             d="m 19638.1,4235.63 259.4,-1948.03 1963.9,-74.2 -1905.1,482.68 -1051.4,-1660.32 1280.1,-1491.123 1800.4,787.898 -1718.7,-952.926 148.9,-1959.589 -331.7,1937.054 -1949.3,249.547 1964.1,-66.027 879.6,1757.436 -1230.2,1532.57 -1825.4,-728.03 1749.2,895.66 -84.1,1963.44 -1832.8,709.29 -1214.4,-1545.1 1064.5,1651.97 -1057.2,1656.67 -1941.3,-305.15 -498,-1901.1 -223.6,1952.47 -1794.3,801.46 1962.7,-98 875.9,1759.25 -180.1,-1956.97 1592.8,-1151.2 1801.7,784.92 2.3,1965.23 708.8,-1832.96 1938.5,-323 -1924,-400.2 -180.2,-1956.96 -3.8,1965.23 -1787.5,816.54 -1464.2,-1310.9 614.8,-1866.6 -1248.4,1517.74 -1941.9,-301.98 1701.1,984.07 -220.4,1952.84 912,-1740.83 1962.6,-101.2 1086.2,1637.79 -1065.7,1651.21 1590.9,-1153.81 1802.9,781.97 244.7,1949.94 -1793,804.4 1860.4,-633.1 1351.7,1426.6 -765.9,1809.9 -1965.1,23.1 1840.4,689.4 343.4,1935 379.9,-1928.2 1918.9,-424.1 -1942.4,-298.8 -731.6,-1824 1197.6,-1558.2 1907.4,473.2 -1607,-1131.2 155.7,-1959.07 1780.1,-832.6 1317,1458.71 -1174.7,-1575.55 941.8,-1724.89 1957.7,172.08 626.4,1862.73 89.9,-1963.17 1735.6,-921.93 -1951.6,231.58 -993.8,-1695.44 313.1,1940.14 -1510.5,1257.11 -1851,-660.25 -136.4,-1960.5 -582.1,1877.02 -1912,454.41 -1339.8,-1437.77 780.9,-1803.45 -1380.4,1398.79 -1906.7,-476.11 -528.2,-1892.94 1384.8,-1394.46 -1937.8,327.4 -1403.8,-1375.245 340.6,1935.495 -1514.5,1252.43 1960.5,-136.43 1262.7,1505.88 -476,1906.7 -1892.9,528.21 1846.5,672.74 541.1,1889.27 660.1,-1851.04 1960.5,-136.47 -1877.1,-582.05 -454.5,-1911.94 1437.7,-1339.85 1875.2,587.92 -1182.2,-1569.86 575.1,-1879.19 -1561.8,1192.91 -1808.8,-768.4 1023.2,1677.9 -756.1,1813.98 -1911.9,454.58 -1339.9,-1437.64 252.3,1948.98 L 12872.6,7328.68 10941,6966.34 10499.4,5051.37 10218.3,6996.39 8401.06,7744.52 6852.73,6534.23 7139.95,4590.1 5774.45,6003.44 3828.41,5729.47 5251.02,7085.31 4775.15,8992.06 6272.26,7718.95 l 1909.95,462.87 748.18,1817.23 -1210.25,1548.35 1885.49,-554.1 1556.57,1199.6 -567,-1881.6 1633.5,-1092.66 -1728.6,934.96 L 8929.21,8972.8 9382.01,7060.45 11315.6,6709.43 9386,6337.11 8724.18,4486.67 l -52.47,1964.53 -1821.1,738.73 1965,-29.84 1025.97,1676.16 -920.47,1736.35 -1959.65,-148 1773.36,846.9 173.72,1957.6 -1616.06,1118.2 -1671.89,-1032.9 1184.94,1567.8 -746.29,1818 -1949.34,249.5 -1180.02,-1571.6 44.32,1964.8 -1563.44,1190.7 1964.38,-57.7 1020.77,1679.3 147.93,-1959.6 1672.34,-1032.2 1818.04,746.2 249.5,1949.3 932.18,-1730.1 1947.6,-262.7 -1736.41,-920.4 147.87,-1959.7 -846.83,1773.5 -1957.53,173.8 -1118.35,-1616 852.39,-1770.7 -1724.03,943.3 -1776.53,-840.3 955.05,1717.5 -1021.39,1679 1807.98,-770.3 1685.89,1009.9 173.9,1957.6 -1615.96,1118.4 1964.98,31.6 1129.39,1608.3 -637.29,1859 -1958.66,160.6 1884.09,558.9 478.05,1906.2 -1421.07,1357.5 -1882.33,-564.8 1201.48,1555.2 -551.93,1886.1 1546.95,-1212 1818.11,746 -1043.73,-1665.1 733.65,-1823.2 1906.16,-478.1 1357.5,1421 -276.2,-1945.7 1411.7,-1367.2 1935.9,338.6 242.6,1950.2 -59,-1964.4 1760.5,-873.2 1505.3,1263.4 -554.8,1885.3 1199.3,-1556.9 1950.5,239.8 -1731.6,-929.2 157.8,-1958.9 -855.8,1769.1 -1958.4,163.9 -1138,-1602.3 1012.4,-1684.4 -1553.2,1204.1 -1827,-724 -273.4,-1946.1 1673.8,-1029.9 -1933,354.6 -1289.1,-1483.3 652.6,-1853.7 1934.1,-348.5 -1775.4,-842.8 -361.7,-1931.7 -830.6,1781 -1958.93,157.8 1684.43,1012.3 171.2,1957.8 -1483.28,1289.2 -1853.73,-652.6 1127.12,1609.9 -639.91,1858.2 1602.17,-1138.1 1684.53,1012.2 -1204.21,-1553.1 723.81,-1827 1946.1,-273.5 1199.3,1556.9 -68.5,-1964 1548.7,-1209.9 -1963.6,81.9 -1041.3,-1666.6 -123.8,1961.3 -1659.5,1052.7 -1827.1,-723.8 -273.5,-1946.1 -910.79,1741.4 -1944.2,286.8 -1374.77,-1404.3 736.17,-1822.2 -1345.52,1432.4 -1917.84,-429 -574.613,-1879.3 1350.003,-1428.2 -1929.113,375 -1437.317,-1340.2 388.169,1926.5 -1483.139,1289.4 1956.537,-184.7 1299.442,1474.3 -428.942,1917.9 -1879.327,574.6 1862.507,627.1 587.473,1875.4 L 19638.1,4235.63" /><g
             transform="scale(1.28903)"
             id="g112"><path
               id="path114"
               style="fill:none;stroke:#500000;stroke-width:5.81133986;stroke-linecap:round;stroke-linejoin:round;stroke-miterlimit:10;stroke-dasharray:none;stroke-opacity:1"
               d="m 13829.2,3537.65 -409.7,-1468.5 1074.3,-1081.786 -1503.3,253.986 -1089.1,-1066.882 264.2,1501.512 -1174.9,971.61 1521,-105.84 979.5,1168.22 -369.3,1479.18 -1468.4,409.77 1432.4,521.89 419.8,1465.66 512.1,-1436 L 15538.7,6044.6 14082.5,5593.06 13729.9,4109.82 14845.2,3070.4 16300,3526.5 15382.8,2308.64 15829,850.803 14617.4,1776.23 13214.2,1180.13 14008,2481.8 13421.4,3889.04 11938.2,4241.7 10898.7,3126.41 11094.4,4638.38 9986.24,5685.42 8487.8,5404.33 8145.22,3918.74 7927.13,5427.64 6517.34,6008.02 5316.19,5069.1 5539.01,3560.89 4479.68,4657.33 2969.99,4444.79 l 1103.63,1051.83 -369.17,1479.21 1161.42,-987.65 1481.69,359.08 580.43,1409.77 -938.88,1201.19" /></g><g
             transform="scale(1.23652)"
             id="g116"><path
               id="path118"
               style="fill:none;stroke:#500000;stroke-width:6.05814981;stroke-linecap:round;stroke-linejoin:round;stroke-miterlimit:10;stroke-dasharray:none;stroke-opacity:1"
               d="m 6243.47,9338.68 1524.84,-448.15 1258.84,970.2 -458.53,-1521.75 1321.04,-883.64 -1397.94,756.13 -1270.45,-954.95 366.19,-1546.57 1563.77,-283.88 -1560.55,-301.09 -535.22,-1496.5 -42.44,1588.76 -1472.77,597.43 1589.15,-24.14 829.72,1355.56 -744.41,1404.22 -1584.81,-119.7 1434.16,684.95 140.49,1583.14 -1306.95,904.3 -1352.1,-835.3 958.3,1267.9 -603.55,1470.3 -1576.47,201.7 -954.31,-1270.9 35.84,1588.9 -1264.39,963 1588.64,-46.7 825.52,1358.1 119.63,-1584.8 1352.46,-834.8 1470.3,603.5 201.78,1576.5 753.87,-1399.2 1575.05,-212.5 -1404.26,-744.3 119.59,-1584.8 -684.85,1434.2 -1583.1,140.6 -904.44,-1306.9 689.35,-1432.1 -1394.27,762.9 -1436.72,-679.6" /></g><path
             id="path120"
             style="fill:#852055;fill-opacity:1;fill-rule:evenodd;stroke:none"
             d="m 1078.93,20245.1 2080.7,-23.2 374.11,2046.9 -794.34,-1923.2 1580.67,-1353.3 1755.89,1116.6 -555.09,2005.4 739.32,-1945.1 2076.14,-139.6 -2080.13,-54.2 -555.69,-2005.2 366.66,2048.2 -1708.47,1187.9 -1792.36,-1057.1 487.53,-2022.9 -673.67,1968.8 -2070.286,209.2 -1019.926,-1813.7 1436.809,-1505.2 -1570.645,1364.9 -1895.742,-857.9 27.91,-2080.6 1918.09,-806.8 -2079.99,59.3 -1109.81,-1760.2 398.9,2042.2 -1712.15,1182.6 2023.75,-484.1 1446.84,1495.5 -550.72,2006.6 -2059.39,298 2027.94,466.2 631.04,1982.9 127.98,-2076.9 2023.727,-484.2 -2059.997,293.7 -1126.43,-1749.5 1152.89,-1732.3 2048.807,363.7 -1779.017,-1079.4 23.41,-2080.7 -773.58,1931.7 -2079.86,63.8 1962.4,692 403.31,2041.4 -1551.78,1386.3 -1891.31,-867.7 1450.08,1492.4 -546.38,2007.8 -2006.34,551.8 -1113.66,-1757.7 945.25,1853.7 -1290.28,1632.5 -2012.33,-529.5 -319.71,-2056.1 -444.8,2032.7 -1976,652 2078.1,106 734.13,1947 18.92,-2080.7 1800.61,-1042.9 1814.27,1018.9 -208.11,2070.4 942.08,-1855.3 2076.54,-133.6 1141.23,1739.9 -1330.83,1599.7 1473.92,-1468.9 1949.838,726.7 L -6.07422,29180.4 -1864.68,30116 206.422,29915.1 1433.67,31595.5 896.441,29585.2 2523.96,28288.6 537.941,28909.6 -1007.51,27516.2 -594.91,25476.7 1439.36,25039 -615.641,24712.2 -1380.43,22777 -74.9766,21156.6 1932.33,21704.8 258.691,20468.4 l 212.289,-2070 1904.98,-837.2 1668.46,1243.5 -633.49,-1982.1 1231.14,-1677.5 -1977.35,648 -1539.67,-1399.8 437.8,2034.3 -1388.405,1549.9 -2069.985,-212.2 -837.26,-1905 -427.42,2036.5 -1898.76,851.2 2039.54,412.5 437.86,2034.2 326.68,-2055 1935.142,-764.9 1620.488,1305.3 -335.277,2053.6 1467.567,-1475.1 2056.05,320.2 -1485.9,-1456.7 533.34,-2011.4 L 1932.48,18436.2 -82.7031,17917.7 -847.684,15982.6 457.598,14362 l -2004.478,558.6 -1630.06,-1293.4 88.19,-2078.9 1940.66,-750.9 -2080.83,-1 -1058.34,-1791.61 1035.65,-1804.79 2080.82,9.75 -1686.66,-1218.62 -5.52,-2080.83 -1206.21,1695.56 -2070.01,-212.01 1560.19,1376.83 -196.8,2071.51 -1791.56,1058.39 -1804.83,-1035.59 865.34,1892.41 -1022.31,1812.3 1885.96,-879.2 1391.65,1547 -1241.65,-1669.8 999.44,-1825.06 2072.51,185.89 658.7,1973.87 98.93,-2078.52 1839.386,-972.9 -2066.646,242.61 -1049.07,-1797.03 328.95,2054.67 -1601.08,1329.07 -1959,-701.56 -140.68,-2076.07 -618.9,1986.66 -2025.04,478.57 -1415.9,-1524.83 831.2,-1907.63 -1464.2,1478.48 -2018,-507.71 -554.6,-2005.56 1470.4,-1472.34 -2052.5,341.94 -1483.1,-1459.55 357,2049.98 -1606.6,1322.41 2076,-140.76 1334.2,1596.82 -507.6,2017.95 -2005.6,554.7 1953.9,715.8 569.4,2001.4 701.4,-1959.1 2076.1,-140.8 -1986.8,-618.8 -478.7,-2024.96 1524.8,-1415.97 1984.1,627.06 -1248.9,-1664.42 612.5,-1988.65 -1655.2,1261.02 -1913.7,-816.99 1081.1,1777.95 -802.9,1919.68 -2025,478.81 -1416.1,-1524.72 264.6,2063.96 -1514.3,1427.13 -2044.7,-386.2 -464,-2028.4 -300.2,2059.1 -1925.1,789.7 -1637.2,-1284.37 308.8,-2057.79 -1448.4,1493.92 -2060,-293.71 1504.5,1437.45 -507.4,2018 1586.8,-1346 2021.7,492.6 789.8,1925.1 -1284.3,1637.2 1997.1,-584.3 1646.6,1272.3 -61.5,2079.9 -2007.2,548.7 2049.6,-359.5 1181.8,1712.6 -1096.9,1768.3 -2059.4,-297.9 1812.7,1021.8 43.2,2080.4 711.3,-1955.4 2076.8,-130.3 -1983.5,-628.9 -468.5,-2027.4 1506.7,-1435.2 1918.1,806.7 -1497.1,-1445.2 481.8,-2024.3 1998.3,-580.2 1331.2,1599.3 -663.4,-1972.2 1359.9,-1575 2041,405.2 655.1,1975 616.3,-1987.5 1970.15,-669.6 -1991.95,-601.7 -460,-2029.4 -806.6,1918.2 -2025.9,474.9 -1575.1,-1359.8 405.2,-2041.07 -1517.1,1424.27 -2043.9,-390.1 1435.4,1506.5 -806.6,1918.2 1445.1,-1497.2 2024.3,481.7 580.4,1998.2 -1451.4,1491.2 2048,-368.3 1501.8,1440.3 -383.4,-2045.2 1589.5,-1343 -2074.1,167.5 -1354.6,-1579.6 481.6,-2024.3 1998.2,-580.4 -1962.8,-690.59 -595.1,-1993.93 1263.3,-1653.44 2020.8,496.43 -1704.9,-1192.98 158.9,-2074.76 1882.9,-885.92 1699.85,1200.1 -684.25,-1965.11 1187.56,-1708.652 -1960.06,698.6762 -1575.1,-1359.6742 489.9,2022.319 -1348,1585.101 -2074.8,-158.9 -886,-1882.787 -374.9,2046.777 -1876.2,899.79 19567.23,17017.65" /><g
             transform="scale(1.33336)"
             id="g122"><path
               id="path124"
               style="fill:none;stroke:#500000;stroke-width:5.61815023;stroke-linecap:round;stroke-linejoin:round;stroke-miterlimit:10;stroke-dasharray:none;stroke-opacity:1"
               d="m 353.229,13798.6 1428.711,-627.9 1251.32,932.5 -475.11,-1486.5 923.34,-1258.1 -1482.99,486 -1154.725,-1049.8 328.345,1525.7 -1041.288,1162.4 -1552.462,-159.2 -627.93,-1428.7 -320.56,1527.3 -1424.05,638.4 1529.63,309.4 328.39,1525.6 245.01,-1541.2 1451.326,-573.7 1215.341,979 -251.451,1540.2 1100.654,-1106.4 1542.01,240.2 -1114.41,-1092.5 400,-1508.5 -1203,994.1 -1511.3562,-388.9 -573.7248,-1451.3 978.943,-1215.4 -1503.332,418.9 -1222.52,-970 66.14,-1559.17 1455.469,-563.1 -1560.599,-0.79 -793.73,-1343.67 776.72,-1353.57 1560.582,7.31 -1264.972,-913.95 -4.14,-1560.59 -904.64,1271.65 -1552.47,-159.01 1170.12,1032.61 -147.6,1553.6 -1343.64,793.78 -1353.6,-776.68" /></g></g></g></g></g></svg>